<svg width="177" height="35" viewBox="0 0 177 35" fill="none" xmlns="http://www.w3.org/2000/svg">
    <g clip-path="url(#clip0_5813_2977)">
        <path
            d="M60.4262 9.06641C60.7818 9.06641 60.9733 9.23301 60.9733 9.58859V11.9185C60.9733 12.2741 60.7843 12.4656 60.4262 12.4656H52.964V25.1795C52.964 25.535 52.7974 25.7017 52.4418 25.7017H49.8508C49.4952 25.7017 49.3286 25.535 49.3286 25.1795V12.4656H41.8664C41.5108 12.4656 41.3193 12.2766 41.3193 11.9185V9.58859C41.3193 9.23301 41.5083 9.06641 41.8664 9.06641H60.4262Z"
            fill="black" />
        <path
            d="M66.3866 9.06641C66.7422 9.06641 66.9088 9.23301 66.9088 9.58859V19.0699C66.9088 21.5888 67.6225 22.3249 70.0693 22.3249H76.6513C79.0981 22.3249 79.7893 21.5888 79.7893 19.0699V9.58859C79.7893 9.23301 79.9559 9.06641 80.3115 9.06641H82.9025C83.2581 9.06641 83.4247 9.23301 83.4247 9.58859V19.428C83.4247 23.9909 81.5946 25.7017 76.7706 25.7017H69.9275C65.1284 25.7017 63.2734 23.9909 63.2734 19.428V9.58859C63.2734 9.23301 63.4624 9.06641 63.8205 9.06641H66.3866Z"
            fill="black" />
        <path
            d="M100.01 9.06641C103.645 9.06641 105.12 10.7548 105.12 13.9625V15.3177C105.12 18.0281 104.073 19.6195 101.579 20.0695L105.642 25.1074C105.784 25.274 105.761 25.7017 105.334 25.7017H102.268C101.865 25.7017 101.746 25.6072 101.601 25.3933L97.8466 20.45H90.1705V25.1795C90.1705 25.535 90.0039 25.7017 89.6484 25.7017H87.0822C86.7266 25.7017 86.5352 25.535 86.5352 25.1795V9.78006C86.5352 9.30512 86.7739 9.06641 87.2488 9.06641H100.01ZM90.173 17.5506H99.2739C100.89 17.5506 101.484 16.8618 101.484 15.4345V14.4374C101.484 13.0126 100.89 12.3213 99.2739 12.3213H90.4814C90.2675 12.3213 90.173 12.4158 90.173 12.6073V17.5506Z"
            fill="black" />
        <path
            d="M122.442 9.06641C125.722 9.06641 126.958 10.3495 126.958 12.9877V14.1291C126.958 15.4843 126.435 16.4814 125.436 17.1478C126.552 17.7893 127.074 18.8113 127.074 20.2138V21.5913C127.074 24.1102 126.03 25.7017 122.867 25.7017H108.751C108.276 25.7017 108.037 25.4629 108.037 24.988V9.78006C108.037 9.30512 108.276 9.06641 108.751 9.06641H122.439H122.442ZM111.677 15.9816H121.42C122.989 15.9816 123.464 15.5067 123.464 14.5792V13.771C123.464 12.7963 122.942 12.3462 121.706 12.3462H111.986C111.772 12.3462 111.677 12.4407 111.677 12.6545V15.9816ZM111.677 18.5726V22.1135C111.677 22.3274 111.772 22.4218 111.986 22.4218H121.728C122.989 22.4218 123.486 21.9693 123.486 20.9722V20.0695C123.486 19.0948 122.986 18.5726 121.42 18.5726H111.677Z"
            fill="black" />
        <path
            d="M132.993 9.06641C133.348 9.06641 133.515 9.23301 133.515 9.58859V25.177C133.515 25.5326 133.348 25.6992 132.993 25.6992H130.426C130.071 25.6992 129.879 25.5326 129.879 25.177V9.58859C129.879 9.23301 130.068 9.06641 130.426 9.06641H132.993Z"
            fill="black" />
        <path
            d="M140.905 9.06641C142.426 9.06641 142.757 9.25539 143.662 10.4688L152.502 22.0663C152.574 22.1856 152.669 22.2329 152.81 22.2329H153.024C153.143 22.2329 153.213 22.1608 153.213 21.9942V9.58859C153.213 9.23301 153.38 9.06641 153.735 9.06641H156.229C156.585 9.06641 156.752 9.23301 156.752 9.58859V23.23C156.752 25.1546 156.063 25.7017 154.613 25.7017H152.569C151.119 25.7017 150.764 25.5599 149.811 24.2992L140.947 12.7018C140.852 12.5824 140.78 12.5352 140.638 12.5352H140.425C140.283 12.5352 140.236 12.6073 140.236 12.7739V25.1795C140.236 25.535 140.069 25.7017 139.713 25.7017H137.219C136.864 25.7017 136.672 25.535 136.672 25.1795V11.5381C136.672 9.61346 137.361 9.06641 138.811 9.06641H140.902H140.905Z"
            fill="black" />
        <path
            d="M172.365 9.06641C175.645 9.06641 176.881 10.3495 176.881 12.9877V14.1291C176.881 15.437 176.406 16.459 175.478 17.1478C176.523 17.8142 177 18.8586 177 20.2138V21.5913C177 24.1102 175.931 25.7017 172.793 25.7017H160.056C159.701 25.7017 159.534 25.535 159.534 25.1795V23.0634C159.534 22.7078 159.701 22.5412 160.056 22.5412H171.723C172.959 22.5412 173.481 22.0886 173.481 21.0667V20.1864C173.481 19.2117 172.982 18.6646 171.415 18.6646H160.198C159.843 18.6646 159.651 18.498 159.651 18.1424V16.454C159.651 16.0985 159.84 15.9319 160.198 15.9319H171.415C172.984 15.9319 173.459 15.4321 173.459 14.5071V13.6765C173.459 12.6794 172.937 12.2269 171.676 12.2269H160.056C159.701 12.2269 159.534 12.0603 159.534 11.7047V9.58859C159.534 9.23301 159.701 9.06641 160.056 9.06641H172.365Z"
            fill="#00FF99" />
        <path
            d="M34.8119 15.9465C34.8119 12.1892 33.5014 8.73288 31.3182 6.0051L32.5391 3.8915C32.84 3.36932 32.3601 2.74519 31.7782 2.90184L29.0007 3.64533C26.2431 1.36762 22.7121 0 18.8654 0C12.2561 0 6.5767 4.0407 4.15974 9.78222H0.676035C0.0742816 9.78222 -0.226595 10.5108 0.198611 10.936L3.06813 13.8055C2.97364 14.5067 2.91893 15.2204 2.91893 15.9489C2.91893 24.7415 10.0728 31.8954 18.8654 31.8954C19.318 31.8954 19.7655 31.873 20.2106 31.8357L21.71 34.4342C22.0109 34.9564 22.7917 34.852 22.9484 34.2701L23.7938 31.1121C30.1818 29.0309 34.8119 23.0233 34.8119 15.9489V15.9465ZM18.8654 0.579374C22.4212 0.579374 25.6936 1.79531 28.302 3.83183L24.7984 4.76927C24.4975 4.84884 24.2314 5.01544 24.0201 5.23426C22.461 4.48082 20.7104 4.0581 18.8654 4.0581C14.5661 4.0581 10.7939 6.35322 8.70521 9.77973H4.79382C7.17348 4.36893 12.5843 0.579374 18.8654 0.579374ZM18.9375 13.9298C18.9375 13.9298 18.9176 13.9249 18.9102 13.9224C18.8828 13.9149 18.853 13.9075 18.8256 13.9C18.7858 13.8901 18.746 13.8801 18.7063 13.8751C18.6739 13.8702 18.6391 13.8652 18.6068 13.8602C18.5968 13.8602 18.5894 13.8577 18.5794 13.8552C18.5546 13.8528 18.5272 13.8503 18.5024 13.8478C18.4601 13.8453 18.4203 13.8428 18.378 13.8403C18.3556 13.8403 18.3358 13.8378 18.3134 13.8378C18.3034 13.8378 18.296 13.8378 18.286 13.8378C18.2537 13.8378 18.2214 13.8378 18.1915 13.8428C18.1542 13.8428 18.1194 13.8478 18.0821 13.8503C18.0523 13.8528 18.0224 13.8577 17.9926 13.8627C17.9528 13.8677 17.9155 13.8751 17.8757 13.8826C17.8484 13.8876 17.8235 13.8925 17.7962 13.9C17.7514 13.9099 17.7091 13.9224 17.6669 13.9373C17.6445 13.9448 17.6246 13.9497 17.6022 13.9572C17.5749 13.9671 17.5475 13.9771 17.5202 13.987C17.5152 13.987 17.5102 13.9895 17.5077 13.992C17.4829 14.002 17.458 14.0119 17.4356 14.0218C17.4281 14.0243 17.4207 14.0268 17.4157 14.0293C17.3511 14.0591 17.2914 14.089 17.2292 14.1238C17.2242 14.1238 17.2218 14.1288 17.2168 14.1288C17.2118 14.1313 17.2068 14.1362 17.2019 14.1387C17.1919 14.1462 17.1795 14.1536 17.1695 14.1586C17.1322 14.181 17.0974 14.2034 17.0626 14.2282C17.0353 14.2481 17.0079 14.268 16.9806 14.2879C16.9607 14.3028 16.9383 14.3202 16.9184 14.3376C16.906 14.3476 16.8935 14.3575 16.8786 14.37C16.8562 14.3874 16.8363 14.4073 16.8164 14.4272C16.804 14.4371 16.7941 14.4495 16.7816 14.4595C16.7344 14.5042 16.6921 14.5515 16.6498 14.5987C16.6374 14.6137 16.625 14.6286 16.6125 14.6435C16.5404 14.7305 16.4758 14.8225 16.4211 14.9195C16.4186 14.9245 16.4136 14.9294 16.4111 14.9344C16.4012 14.9543 16.3912 14.9717 16.3813 14.9916C16.3763 15.0016 16.3713 15.009 16.3664 15.019C16.3515 15.0463 16.3365 15.0762 16.3241 15.1035C16.3142 15.1284 16.3017 15.1508 16.2918 15.1756C16.2918 15.1756 16.2918 15.1781 16.2918 15.1806C16.2893 15.1881 16.2868 15.1955 16.2818 15.203C16.2694 15.2353 16.257 15.2651 16.2445 15.2975C16.2296 15.3372 16.2197 15.3745 16.2072 15.4143C16.1998 15.4417 16.1898 15.4715 16.1849 15.4989C16.1849 15.5088 16.1799 15.5163 16.1774 15.5262H12.7608C13.0169 12.6841 15.4041 10.4561 18.3134 10.4561L19.1588 9.77973H9.39897C11.4181 6.68642 14.9092 4.63748 18.8704 4.63748C20.5911 4.63748 22.2223 5.02539 23.6844 5.71666L22.8588 7.14644L20.6508 10.9708L18.9425 13.9298H18.9375ZM8.33969 16.5408H16.1724C16.1724 16.5408 16.1774 16.5582 16.1799 16.5681C16.1873 16.5955 16.1948 16.6253 16.2023 16.6527C16.2147 16.6924 16.2246 16.7297 16.2396 16.7695C16.252 16.8018 16.2644 16.8317 16.2769 16.864C16.2793 16.8715 16.2818 16.8789 16.2868 16.8889C16.2868 16.8889 16.2868 16.8889 16.2868 16.8914C16.2968 16.9162 16.3067 16.9386 16.3191 16.9635C16.3316 16.9908 16.3465 17.0207 16.3614 17.048C16.3664 17.058 16.3713 17.0654 16.3763 17.0754C16.3863 17.0953 16.3937 17.1127 16.4062 17.1326C16.4086 17.1375 16.4136 17.1425 16.4161 17.1475C16.4733 17.2445 16.538 17.3365 16.6076 17.4235C16.62 17.4384 16.6324 17.4533 16.6449 17.4683C16.6871 17.5155 16.7294 17.5627 16.7767 17.6075C16.7891 17.6199 16.799 17.6299 16.8115 17.6423C16.8314 17.6622 16.8513 17.6796 16.8736 17.6995C16.8861 17.7094 16.8985 17.7194 16.9134 17.7318C16.9333 17.7492 16.9532 17.7642 16.9756 17.7816C17.0029 17.8015 17.0278 17.8213 17.0576 17.8412C17.0925 17.8661 17.1273 17.8885 17.1646 17.9109C17.1745 17.9183 17.187 17.9258 17.1969 17.9308C17.2019 17.9332 17.2068 17.9382 17.2118 17.9407C17.2168 17.9407 17.2193 17.9457 17.2242 17.9457C17.2839 17.9805 17.3461 18.0128 17.4107 18.0402C17.4182 18.0427 17.4257 18.0451 17.4306 18.0476C17.4555 18.0576 17.4804 18.0675 17.5027 18.0775C17.5077 18.0775 17.5127 18.08 17.5152 18.0824C17.5425 18.0924 17.5699 18.1048 17.5972 18.1123C17.6196 18.1197 17.6395 18.1247 17.6619 18.1322C17.7042 18.1446 17.7464 18.157 17.7912 18.1695C17.8185 18.1769 17.8434 18.1819 17.8708 18.1869C17.9081 18.1943 17.9478 18.2018 17.9876 18.2068C18.0175 18.2117 18.0473 18.2142 18.0771 18.2192C18.112 18.2242 18.1493 18.2242 18.1866 18.2267C18.2189 18.2267 18.2512 18.2316 18.281 18.2316C18.291 18.2316 18.2985 18.2316 18.3084 18.2316C18.3308 18.2316 18.3507 18.2291 18.373 18.2291C18.4153 18.2291 18.4576 18.2267 18.4974 18.2217C18.5247 18.2217 18.5496 18.2167 18.5745 18.2142C18.5844 18.2142 18.5919 18.2117 18.6018 18.2093C18.6366 18.2043 18.669 18.1993 18.7013 18.1943C18.7411 18.1869 18.7808 18.1769 18.8206 18.1695C18.848 18.162 18.8778 18.1545 18.9052 18.1471C18.9151 18.1446 18.9251 18.1421 18.9325 18.1396L20.6408 21.0987C18.0523 22.2972 14.9291 21.3448 13.4745 18.8259L12.4674 18.433L17.5152 27.1759C12.1069 26.5318 7.85729 22.056 7.57133 16.5457H8.3372L8.33969 16.5408ZM24.5 25.7436L23.7316 24.4158L21.5236 20.5914L19.8153 17.6324C19.8153 17.6324 19.8277 17.6174 19.8352 17.6125C19.8551 17.5926 19.8749 17.5727 19.8948 17.5503C19.9222 17.5205 19.952 17.4906 19.9769 17.4583C19.9993 17.4334 20.0192 17.4061 20.0415 17.3787C20.0465 17.3713 20.0515 17.3663 20.0565 17.3588C20.0565 17.3588 20.0565 17.3588 20.059 17.3564C20.0739 17.3365 20.0913 17.3141 20.1062 17.2942C20.1236 17.2693 20.141 17.242 20.1584 17.2146C20.1634 17.2047 20.1684 17.1972 20.1733 17.1873C20.1858 17.1699 20.1982 17.1525 20.2081 17.1326C20.2131 17.1251 20.2156 17.1152 20.2206 17.1077C20.2355 17.0803 20.2504 17.053 20.2653 17.0232C20.2827 16.9908 20.2977 16.9585 20.3126 16.9237C20.325 16.8963 20.335 16.869 20.3474 16.8391C20.3623 16.8018 20.3747 16.7645 20.3872 16.7272C20.3946 16.7024 20.4046 16.675 20.412 16.6502C20.422 16.6154 20.4319 16.5781 20.4394 16.5432C20.4394 16.5383 20.4394 16.5358 20.4419 16.5308C20.4419 16.5283 20.4419 16.5233 20.4444 16.5209C20.4493 16.4985 20.4543 16.4786 20.4593 16.4562C20.4643 16.4289 20.4692 16.4015 20.4742 16.3717C20.4742 16.3617 20.4767 16.3518 20.4792 16.3393C20.4817 16.317 20.4866 16.2946 20.4891 16.2747C20.4891 16.2672 20.4891 16.2598 20.4916 16.2523C20.4916 16.2349 20.4916 16.2175 20.4941 16.2001C20.4941 16.1777 20.4941 16.1578 20.4966 16.1354C20.4966 16.1056 20.4991 16.0733 20.4991 16.0434C20.4991 16.0385 20.4991 16.036 20.4991 16.031C20.4991 16.026 20.4991 16.0235 20.4991 16.0186C20.4991 15.9887 20.4991 15.9589 20.4966 15.9266C20.4966 15.9042 20.4966 15.8818 20.4941 15.8619C20.4941 15.8445 20.4941 15.8271 20.4916 15.8097C20.4916 15.8022 20.4916 15.7948 20.4891 15.7873C20.4891 15.7649 20.4842 15.745 20.4792 15.7227C20.4792 15.7127 20.4767 15.7003 20.4742 15.6903C20.4692 15.663 20.4668 15.6356 20.4593 15.6083C20.4543 15.5859 20.4493 15.566 20.4444 15.5436C20.4444 15.5411 20.4444 15.5362 20.4444 15.5337C20.4444 15.5287 20.4444 15.5262 20.4419 15.5213C20.4344 15.4864 20.4245 15.4491 20.4145 15.4143C20.4071 15.387 20.3996 15.3621 20.3897 15.3372C20.3772 15.2999 20.3648 15.2626 20.3499 15.2254C20.3399 15.198 20.3275 15.1682 20.3151 15.1408C20.3001 15.1085 20.2852 15.0762 20.2678 15.0413C20.2529 15.014 20.2405 14.9842 20.2231 14.9568C20.2181 14.9493 20.2156 14.9394 20.2106 14.9319C20.2007 14.912 20.1883 14.8971 20.1758 14.8772C20.1708 14.8673 20.1659 14.8598 20.1584 14.8499C20.141 14.8225 20.1236 14.7977 20.1062 14.7703C20.0913 14.7479 20.0764 14.728 20.059 14.7081C20.059 14.7081 20.059 14.7081 20.0565 14.7057C20.0515 14.6982 20.0465 14.6932 20.0415 14.6858C20.0217 14.6584 19.9993 14.6311 19.9769 14.6062C19.9495 14.5739 19.9222 14.544 19.8948 14.5167C19.8749 14.4968 19.8551 14.4744 19.8327 14.4545C19.8252 14.4471 19.8202 14.4396 19.8128 14.4346L21.5211 11.4756C23.8535 13.1192 24.5895 16.2996 23.1349 18.8185L23.299 19.8877L28.7446 10.4536C29.6522 12.0798 30.1694 13.9497 30.1694 15.9415C30.1694 20.1264 27.8842 23.7842 24.4975 25.7386L24.5 25.7436ZM18.8654 31.3111C10.3936 31.3111 3.49831 24.4183 3.49831 15.944C3.49831 15.3944 3.52815 14.8549 3.58534 14.3202L5.30854 16.0434C5.62434 16.3592 6.05451 16.5383 6.50459 16.5383H6.99444C7.28786 22.4887 11.98 27.2977 17.8782 27.7876L19.8899 31.2738C19.5517 31.2961 19.211 31.3111 18.8679 31.3111H18.8654ZM23.9753 30.4358L24.8183 27.2853C24.9103 26.9446 24.8904 26.5841 24.7685 26.2583C28.3418 24.2044 30.7537 20.3527 30.7537 15.9465C30.7537 13.7309 30.142 11.6571 29.0828 9.8792L31.0074 6.54469C33.0265 9.14565 34.2325 12.4081 34.2325 15.9465C34.2325 22.6279 29.9431 28.3247 23.9753 30.4358Z"
            fill="url(#paint0_linear_5813_2977)" />
    </g>
    <defs>
        <linearGradient id="paint0_linear_5813_2977" x1="9.49595" y1="28.9463" x2="26.4445" y2="-0.410286"
            gradientUnits="userSpaceOnUse">
            <stop offset="0.26" stop-color="#00FF99" />
            <stop offset="0.88" stop-color="#00E4FF" />
        </linearGradient>
        <clipPath id="clip0_5813_2977">
            <rect width="177" height="34.7674" fill="black" />
        </clipPath>
    </defs>
</svg>