<svg width="512" height="512" viewBox="0 0 512 512" fill="#2E0D8B" xmlns="http://www.w3.org/2000/svg">
    <path
        d="M17.5744 1.05178C55.4676 1.11801 93.2949 1.18408 134.555 1.22561C148.052 1.2392 161.849 1.25015 175.453 1.26077C203.315 1.28252 230.387 1.30325 252.5 1.3467C279.499 1.39976 299.802 1.48761 316.438 1.57034C320.444 1.59026 324.211 1.61047 327.787 1.62893C339.172 1.68768 348.637 1.73655 357.845 1.75979C400.642 1.8678 435.469 1.70076 456.163 1.60159C459.833 1.584 463.06 1.56808 465.807 1.55666C479.773 1.49862 494 1.42088 508.158 1.33401L509.706 1.32913L509.711 2.88674C509.772 12.8639 509.838 22.8074 509.904 32.6026C509.929 36.4469 509.955 40.2727 509.981 44.0684C509.981 44.0761 509.982 44.0841 509.982 44.0918C510.114 63.594 510.24 82.3361 510.326 99.1035C510.414 116.123 510.558 130.966 510.693 144.851C510.765 152.301 510.833 159.476 510.89 166.562C511.085 190.956 511.149 212.463 511.158 266.973C511.161 279.212 511.11 290.685 511.045 305.176V305.199C511.036 307.269 511.025 309.403 511.016 311.607C510.938 329.361 510.848 352.428 510.795 387.211C510.737 425.644 510.528 456.158 510.326 474.79C510.289 478.265 510.268 481.862 510.249 490.935C510.24 495.479 510.231 501.245 510.22 508.887L510.226 510.942L508.158 510.948C505.794 510.945 503.251 510.941 500.508 510.938C494.334 510.929 487.148 510.92 478.736 510.907C450.888 510.867 407.244 510.879 367.029 510.891C342.62 510.898 319.471 510.905 301.887 510.899C276.171 510.891 251.358 510.854 224.384 510.813C199.681 510.775 173.162 510.734 142.48 510.711C118.938 510.693 96.0652 510.54 72.8215 510.37C69.8634 510.348 66.8925 510.327 63.9191 510.305C44.1311 510.158 23.9181 510.008 2.1584 509.918L1.13008 509.922L1.12715 508.887C1.13045 508.091 1.1328 507.294 1.13594 506.494C1.29457 466.078 1.22903 433.825 1.15645 398.115C1.12806 384.149 1.0988 369.65 1.08125 353.928C1.0535 329.062 1.05972 293.316 1.06758 257.424C1.06825 254.366 1.06787 251.304 1.06856 248.251V248.205C1.07594 215.35 1.08368 183.102 1.06758 159.444C1.042 121.851 0.981434 107.706 0.930864 95.9092C0.911854 91.4747 0.893859 87.3689 0.880082 82.4746C0.830471 64.8473 0.839561 38.2373 0.848832 11.2637V10.9551C0.850374 6.47872 1.02039 2.86572 1.22774 2.88674C1.43506 2.90957 1.60232 6.55637 1.60079 11.0323C1.59588 25.32 1.59052 39.2622 1.59395 51.7451C1.77211 52.3924 1.90685 55.7537 1.90547 59.7822C1.90204 69.8684 2.03675 100.76 2.25606 149.106C2.28853 145.795 2.31977 143.021 2.34981 140.59C2.38507 137.737 2.41563 135.551 2.44161 133.672C2.49574 129.755 2.53158 127.149 2.55782 122.523C2.58764 111.809 2.59372 94.9683 2.59981 77.2471C2.60141 72.7731 2.7705 69.1596 2.97774 69.1787C3.18506 69.2005 3.35224 72.8491 3.35079 77.3242V77.5869C3.34475 95.1384 3.33863 112.519 3.30684 123.712C3.29875 126.559 3.28917 129.012 3.28047 130.854C3.27352 132.326 3.26432 134.164 3.25215 135.186C3.25053 135.321 3.24641 135.579 3.24141 135.888C3.24129 135.893 3.24153 135.898 3.24141 135.903C3.23865 136.076 3.22502 136.956 3.19454 137.896C3.18837 138.085 3.17475 138.498 3.15254 138.977C3.15084 139.1 3.14839 139.223 3.14668 139.347C3.12296 141.069 3.0989 142.827 3.07539 144.729C2.98361 152.155 2.86782 163.918 2.74532 188.414C2.63266 210.944 2.58214 249.031 2.58125 296.554C2.59678 293.343 2.61172 290.125 2.62618 286.91C2.66251 278.819 2.69614 270.689 2.72774 262.558C2.73981 259.443 2.75126 256.37 2.76289 253.239C2.7817 248.199 2.80053 243.143 2.81856 238.09C2.83076 234.676 2.84263 231.254 2.85469 227.837V227.814C2.87144 223.07 2.88816 218.315 2.90547 213.522C2.91192 211.845 2.91799 210.188 2.92403 208.542C2.94807 201.993 2.97154 195.558 3.0168 188.151C3.0243 187.251 3.03412 186.271 3.04219 185.541C3.0507 184.756 3.05974 184.001 3.06856 183.287C3.07634 182.657 3.08365 182.056 3.09102 181.48C3.09199 181.403 3.09297 181.326 3.09395 181.249C3.10219 180.604 3.11018 179.988 3.11739 179.396C3.12458 178.804 3.13188 178.235 3.13789 177.674V177.658C3.14406 177.072 3.14821 176.627 3.15352 176.006C3.16017 175.226 3.16505 174.556 3.17012 173.744C3.17506 172.959 3.17995 172.139 3.18379 171.312C3.18763 170.485 3.19051 169.642 3.19356 168.787C3.19661 167.932 3.19982 167.061 3.20235 166.185C3.20487 165.309 3.20696 164.422 3.20918 163.529C3.21141 162.637 3.21389 161.734 3.21602 160.827C3.22097 158.739 3.26257 156.737 3.33321 155.268C3.40385 153.799 3.49726 152.981 3.59395 152.99C3.69057 153.002 3.78315 153.839 3.85274 155.321C3.92235 156.805 3.96347 158.816 3.967 160.904C3.96794 161.473 3.96901 162.045 3.96993 162.618C3.97047 162.959 3.97038 163.302 3.9709 163.645C3.9723 164.565 3.97374 165.496 3.97481 166.432C3.97587 167.367 3.97632 168.311 3.97676 169.266C3.9772 170.223 3.97734 171.193 3.97676 172.177C3.97618 173.158 3.97506 174.161 3.97286 175.18C3.97078 176.174 3.96763 177.308 3.96309 178.322C3.9599 179.064 3.95433 179.977 3.94942 180.739C3.94428 181.534 3.93879 182.316 3.93282 183.07C3.92683 183.826 3.92024 184.558 3.91426 185.256C3.91365 185.33 3.91292 185.405 3.91231 185.48C3.90702 186.097 3.90223 186.693 3.89766 187.256C3.89255 187.885 3.88771 188.481 3.88399 189.047C3.87981 189.67 3.87803 190.049 3.87618 190.514C3.86411 196.657 3.86708 204.251 3.86934 211.491C3.86962 212.401 3.87007 213.306 3.87032 214.201C3.87208 218.957 3.87394 223.704 3.87618 228.447C3.8778 231.894 3.87961 235.345 3.88106 238.801C3.88321 243.885 3.88467 248.986 3.88594 254.08C3.88668 257.244 3.88764 260.351 3.88789 263.508C3.88862 271.75 3.88748 280.02 3.88301 288.3C3.87853 296.568 3.86997 304.889 3.85664 313.215C3.84336 321.509 3.82435 330.127 3.79414 338.447C3.77157 344.564 3.73223 350.836 3.69161 356.638C3.66973 359.756 3.64741 362.81 3.6252 365.818C3.62508 365.828 3.62434 365.839 3.62422 365.849C3.60473 368.489 3.58592 371.097 3.56758 373.686C3.52809 379.235 3.49277 384.687 3.46309 390.139C3.4334 395.582 3.40942 401.001 3.39082 406.461C3.37241 411.88 3.35897 417.39 3.35079 422.845C3.34253 428.328 3.33881 433.711 3.33907 439.368C3.33979 446.806 3.34675 454.192 3.35469 461.774C3.36281 469.301 3.37273 476.889 3.38301 484.497C3.38662 487.156 3.39009 489.821 3.39375 492.488V492.519C3.40053 497.453 3.40772 502.4 3.41426 507.351C3.41438 507.443 3.41414 507.535 3.41426 507.627C10.1319 507.618 16.8664 507.61 23.6232 507.604C31.3147 507.596 39.0536 507.59 46.8322 507.588C54.6119 507.586 62.602 507.586 70.6281 507.599C77.7883 507.609 85.0056 507.624 92.0617 507.638C93.9249 507.641 95.7884 507.645 97.6516 507.648C106.493 507.666 115.053 507.679 123.517 507.682C131.975 507.685 140.427 507.677 148.957 507.66C157.461 507.644 166.073 507.62 174.753 507.591C183.471 507.561 192.077 507.527 200.858 507.49C209.571 507.453 218.326 507.413 227.187 507.371C232.112 507.348 237.353 507.326 242.304 507.308C247.303 507.289 252.271 507.273 257.175 507.258C259.165 507.252 261.145 507.246 263.112 507.24C265.979 507.232 268.822 507.223 271.62 507.214C276.342 507.199 280.95 507.183 285.426 507.164C289.899 507.145 294.242 507.123 298.436 507.097C302.777 507.069 306.354 507.041 310.634 507.001C321.057 506.923 327.516 506.899 334.693 506.872C336.106 506.867 337.55 506.861 339.055 506.855C347.661 506.825 356.259 506.802 364.743 506.785C373.31 506.768 381.742 506.757 390.283 506.75C398.742 506.743 407.262 506.742 415.747 506.745C424.22 506.748 432.678 506.755 441.157 506.767C449.631 506.778 458.279 506.794 466.582 506.814C471.381 506.826 476.478 506.842 481.213 506.857C484.629 506.869 487.996 506.881 491.297 506.893C492.645 506.897 493.985 506.903 495.312 506.907C499.038 506.92 502.679 506.931 506.223 506.941C506.232 503.165 506.241 499.493 506.243 495.891C506.246 491.815 506.245 487.828 506.238 483.839C506.23 479.703 506.219 476.27 506.199 471.879C506.187 469.02 506.174 466.218 506.161 463.425C506.142 459.243 506.122 455.091 506.102 450.909C506.081 446.733 506.06 442.608 506.038 438.463C506.031 437.13 506.024 435.722 506.017 434.386C505.994 430.256 505.972 426.173 505.947 422.094C505.923 418.023 505.898 413.989 505.871 409.973C505.844 405.939 505.816 401.972 505.785 397.928C505.733 391.053 505.709 384.472 505.693 378.71C505.677 372.879 505.668 367.43 505.659 362.126C505.658 361.133 505.656 360.139 505.654 359.146C505.648 354.867 505.642 350.659 505.634 346.514C505.625 341.405 505.614 336.389 505.601 331.357C505.588 326.369 505.572 321.332 505.554 316.371C505.536 311.364 505.516 306.576 505.491 301.416C505.468 296.313 505.437 291.129 505.404 285.448C505.37 279.819 505.335 273.912 505.305 267.93C505.275 261.954 505.248 255.883 505.228 249.855C505.207 243.816 505.192 237.756 505.181 231.78C505.17 225.773 505.163 219.801 505.16 213.86C505.157 207.933 505.158 201.81 505.161 196.079C505.167 186.799 505.176 177.561 505.185 168.307C505.194 159.103 505.204 149.87 505.215 140.657C505.226 131.461 505.237 122.254 505.248 113.063C505.26 103.867 505.272 94.672 505.284 85.4912C505.287 83.4607 505.29 81.43 505.292 79.3994C505.302 72.2496 505.311 65.1005 505.321 57.9815C505.321 57.9326 505.32 57.8838 505.321 57.835C505.332 48.6718 505.344 39.6747 505.354 30.5879C505.357 27.2522 505.361 24.0471 505.363 20.7901C505.366 17.5293 505.369 14.3289 505.37 11.0996C505.371 9.28296 505.371 7.47224 505.371 5.67288C502.654 5.67312 499.984 5.67374 497.293 5.67581C494.408 5.67792 491.544 5.68161 488.414 5.68557C488.129 5.68594 487.843 5.68618 487.557 5.68655C484.132 5.69091 480.237 5.6944 476.616 5.69241C467.026 5.68649 457.679 5.68333 448.164 5.68362C438.644 5.68388 429.145 5.68688 419.567 5.69143C415.826 5.69318 412.068 5.69534 408.309 5.69729C402.461 5.70032 396.592 5.70372 390.705 5.70608C381.019 5.71 371.313 5.71142 361.543 5.70901C351.811 5.70661 342.017 5.70021 332.266 5.6885C322.523 5.67685 312.695 5.66058 302.995 5.63967C292.189 5.61628 281.445 5.59045 270.653 5.5635C259.878 5.53651 249.097 5.50752 238.363 5.47854C227.591 5.44952 216.845 5.42021 206.097 5.38967C195.342 5.35912 184.594 5.32786 173.839 5.29592C167.402 5.2768 160.967 5.25696 154.529 5.23733C151.123 5.25495 147.857 5.27271 144.716 5.28909C121.504 5.41012 104.72 5.49753 82.5773 5.55764C80.4568 5.56674 78.7312 5.5791 76.632 5.59475C76.2318 5.59773 75.8072 5.60134 75.3742 5.60452C72.6308 5.62467 69.4796 5.64587 65.0969 5.6592C56.3538 5.6858 42.9523 5.67929 25.635 5.50393C21.2607 5.45962 18.4773 5.26016 19.4201 5.05764C20.083 4.91559 22.4062 4.80954 25.2414 4.77444C20.0032 4.75034 14.7792 4.72526 9.56856 4.70022C7.48865 4.69019 5.53522 4.64347 4.14766 4.56936C2.76179 4.49527 2.05217 4.40021 2.1711 4.30374C2.29091 4.20719 3.23504 4.11674 4.7961 4.05081C6.35681 3.98495 8.40501 3.94964 10.4943 3.9512C16.0372 3.9555 21.5618 3.95985 27.0871 3.96291C32.6169 3.96602 38.1208 3.96783 43.6408 3.96877C49.1593 3.96972 54.6762 3.9696 60.2102 3.96877C65.7224 3.96791 71.2462 3.96603 76.7795 3.96389C82.3478 3.9618 87.8111 3.95912 93.3635 3.95608C96.6903 3.95422 100.057 3.95237 103.363 3.95022C104.594 3.94948 105.797 3.9481 106.999 3.94729C107.982 3.94663 108.97 3.94597 109.987 3.94534C120.685 3.93798 131.486 3.92986 142.191 3.92092C152.946 3.91203 163.69 3.9025 174.434 3.8926C185.183 3.88271 195.924 3.87205 206.669 3.86135C217.409 3.85064 228.142 3.8397 238.896 3.82815C249.61 3.81656 260.368 3.80483 271.1 3.79202C279.401 3.78212 287.632 3.77209 295.876 3.76077C299.122 3.74139 302.335 3.72273 305.505 3.7051C314.733 3.65381 323.974 3.58625 333.076 3.51956C316.874 3.55271 303.859 3.60487 291.468 3.65432C289.807 3.66095 288.156 3.66736 286.511 3.67385C269.716 3.7401 253.492 3.79666 231.669 3.7842C169.604 3.74878 133.616 3.72208 111.192 3.67385C88.7711 3.62562 79.1374 3.55426 70.1467 3.41213C57.4427 3.21128 32.9233 3.09705 20.6018 3.0928C16.1263 3.09126 12.5138 2.92216 12.5334 2.71487C12.555 2.5075 16.2022 2.34028 20.6789 2.34182C33.6894 2.3463 60.2219 2.46217 75.343 2.7012C82.0779 2.80767 89.8226 2.87636 111.902 2.92385C133.983 2.97135 169.639 2.99676 231.823 3.03225C252.86 3.04426 268.474 2.99134 285.09 2.92581C286.719 2.91938 288.361 2.91288 290.017 2.90627H290.047C305.31 2.84534 321.93 2.77844 344.341 2.74905C395.996 2.68129 465.48 2.54971 481.975 2.47561C485.212 2.46107 488.341 2.44486 491.642 2.42776C496.463 2.40278 501.665 2.37632 508.158 2.34963L508.695 2.34768L508.696 2.88674C508.739 13.4568 508.782 27.4511 508.815 48.8018C508.826 56.3404 508.833 65.1706 508.836 74.8057C508.937 89.265 509.03 103.304 509.086 115.511C509.134 126.046 509.223 135.761 509.32 145.175C509.347 147.885 509.376 150.612 509.405 153.335C509.475 159.903 509.546 166.474 509.6 172.877C509.643 177.981 509.694 183.327 509.749 188.976C509.949 209.553 510.188 234.213 510.192 266.347C510.195 300.411 510.152 329.575 510.11 354.729C510.158 336.256 510.217 321.996 510.269 310.117C510.279 307.876 510.288 305.729 510.297 303.662C510.362 289.063 510.409 278.449 510.407 267.073C510.398 212.739 510.335 192.359 510.151 169.364C510.102 163.31 510.037 156.632 509.968 149.437C509.829 135.056 509.671 118.607 509.58 100.934C509.496 84.4724 509.371 66.0619 509.238 46.5547V46.5313C509.213 42.7197 509.186 38.8632 509.16 34.9737C509.09 24.4645 509.019 13.7138 508.953 2.88674L508.951 2.08889L508.158 2.09182C494.55 2.1744 480.821 2.24851 467.297 2.30471C464.7 2.31551 461.589 2.33051 458.017 2.34768C437.399 2.44678 401.204 2.62134 357.003 2.50979C347.295 2.48528 337.207 2.43251 325.695 2.37307C322.188 2.35497 318.547 2.33631 314.746 2.31741C298.337 2.2358 278.399 2.14887 251.852 2.0967C229.943 2.05365 203.241 2.03338 175.515 2.01174C161.858 2.00109 147.951 1.99038 134.246 1.97659C92.8483 1.93492 54.9052 1.86797 17.0344 1.80178C17.0267 1.80178 17.0187 1.80178 17.0109 1.80178C12.537 1.79396 9.03246 1.61936 9.18965 1.41213C9.35025 1.20509 13.1038 1.04403 17.5744 1.05178ZM289.696 510.064C284.507 510.075 279.45 510.081 274.492 510.086C271.011 510.089 267.569 510.091 264.178 510.094C262.747 510.095 261.316 510.096 259.9 510.097C257.527 510.099 255.173 510.101 252.835 510.104C269.232 510.126 285.26 510.143 301.964 510.148C302.184 510.149 302.406 510.148 302.628 510.148C300.1 510.115 297.63 510.083 295.216 510.051C293.362 510.056 291.518 510.061 289.696 510.064ZM358.96 509.844C364.659 509.863 370.576 509.879 376.826 509.896C381.818 509.909 387.025 509.922 392.5 509.939C394.595 509.945 397.131 509.955 400.089 509.966C411.814 510.01 430.212 510.08 454.406 510.067C458.143 510.065 463.616 510.059 470.674 510.052C472.343 510.05 474.103 510.048 475.947 510.046C475.904 510.046 475.86 510.046 475.817 510.046C471.245 510.027 467.023 510.01 462.467 509.994C454.345 509.967 446.455 509.944 438.486 509.924C430.485 509.904 422.507 509.887 414.52 509.874C406.521 509.861 398.498 509.851 390.546 509.846C382.517 509.84 374.602 509.837 366.612 509.84C364.066 509.841 361.513 509.842 358.96 509.844ZM508.762 205.46C508.731 236.276 508.667 253.815 508.611 269.227C508.594 273.686 508.579 277.972 508.565 282.345C508.59 285.963 508.615 289.721 508.637 293.518C508.668 298.833 508.698 304.58 508.723 310.048C508.748 315.537 508.771 321.115 508.79 326.594C508.81 332.118 508.826 337.591 508.84 343.039C508.853 348.166 508.864 353.275 508.875 358.219C508.876 358.502 508.877 358.785 508.877 359.068C508.889 364.293 508.9 369.377 508.915 374.047C508.931 378.801 508.949 382.753 508.977 386.261C509.011 390.641 509.044 395.136 509.075 399.58C509.106 404.029 509.135 408.459 509.162 412.875C509.189 417.301 509.215 421.684 509.238 426.078C509.246 427.499 509.255 428.986 509.262 430.395C509.265 431.044 509.268 431.693 509.272 432.34C509.274 423.744 509.278 414.819 509.284 405.595C509.293 392.269 509.318 378.042 509.345 362.35C509.391 335.579 509.444 304.539 509.441 266.424C509.438 236.119 509.218 213.473 509.021 193.052C508.964 187.171 508.908 181.468 508.861 175.826C508.841 173.487 508.819 171.149 508.796 168.793C508.784 182.517 508.772 195.133 508.762 205.46ZM508.066 85.461C508.072 91.4307 508.078 97.3993 508.084 103.365C508.087 93.8785 508.088 84.6859 508.085 76.126C508.073 74.3814 508.06 72.6238 508.048 70.8604C508.054 75.7289 508.06 80.5994 508.066 85.461ZM33.341 4.81057C44.1082 4.90468 52.881 4.92525 59.4143 4.91897C53.8658 4.89759 48.3305 4.8748 42.7912 4.85159C39.6385 4.83838 36.4894 4.82447 33.341 4.81057Z"
        fill="#2E0D8B" />
</svg>