<svg width="1104" height="204" viewBox="0 0 1104 204" fill="none" xmlns="http://www.w3.org/2000/svg">
<path d="M693.827 70.5547H740.465C760.736 70.5547 772.361 81.6148 772.361 98.0564C772.361 107.558 767.402 115.775 758.895 120.028C769.815 123.717 775.768 133.211 775.768 144.553C775.768 160.149 765.138 173.332 741.741 173.332H693.827V70.5547ZM736.352 113.934C747.976 113.934 753.083 107.981 753.083 99.3331C753.083 90.5445 747.553 85.5786 738.06 85.5786H716.363C714.173 85.5786 712.406 87.3526 712.406 89.535V109.97C712.406 112.16 714.18 113.926 716.363 113.926H736.352V113.934ZM738.483 158.167C750.389 158.167 756.06 151.932 756.06 142.994C756.06 132.788 749.394 127.822 739.047 127.822H716.355C714.165 127.822 712.399 129.596 712.399 131.778V154.196C712.399 156.385 714.173 158.152 716.355 158.152H738.483V158.167Z" fill="black"/>
<path d="M793.514 67.0059H811.374V173.331H793.514V67.0059Z" fill="black"/>
<path d="M868.382 97.7695C892.343 97.7695 908.926 113.224 908.926 136.19C908.926 159.298 892.336 174.752 868.382 174.752C844.421 174.752 827.838 159.298 827.838 136.19C827.838 113.224 844.428 97.7695 868.382 97.7695ZM868.531 159.298C882.285 159.298 890.784 150.086 890.784 136.19C890.784 121.872 881.855 113.083 868.672 113.083C854.776 113.083 846.128 122.295 846.128 136.331C846.128 150.65 855.058 159.298 868.531 159.298Z" fill="black"/>
<path d="M960.7 97.7695C980.549 97.7695 995.432 108.83 997.986 125.271H979.837C977.424 117.618 969.771 113.224 960.7 113.224C947.659 113.224 939.865 122.436 939.865 136.331C939.865 150.368 948.089 159.298 960.849 159.298C970.491 159.298 977.439 154.621 979.844 147.25H997.993C995.298 163.981 980.557 174.752 960.99 174.752C937.742 174.752 921.582 159.298 921.582 136.19C921.575 113.075 937.734 97.7695 960.7 97.7695Z" fill="black"/>
<path d="M1014.31 67.0059H1032.17V131.511L1065.63 99.1914H1087.74L1057.97 128.823L1103.48 188.377H1082.79L1045.36 141.724L1032.17 154.477V173.331H1014.31V67.0059H1014.31Z" fill="black"/>
<path d="M524.213 155.543H505.174V150.481C520.242 147.861 529.558 137.832 529.558 124.137C529.558 119.156 528.11 114.406 525.438 110.531H547.083L547.194 96.7988H498.82C478.763 96.7988 465.81 107.696 465.81 124.56C465.81 138.307 475.022 148.232 489.912 150.629V155.543H486.772C470.628 155.543 460.993 163.753 460.993 177.493C460.993 187.506 465.714 199.442 488.19 199.442H523.508C540.685 199.442 550.141 191.544 550.141 177.211C550.134 163.441 540.692 155.543 524.213 155.543ZM530.471 175.934C530.471 181.345 527.405 183.75 520.524 183.75H490.729C481.561 183.75 480.5 179.371 480.5 176.075C480.5 169.728 485.911 168.4 490.447 168.4H520.524C527.405 168.4 530.471 170.723 530.471 175.934ZM511.171 124.07C511.171 129.482 509.516 131.887 505.805 131.887H489.719C484.768 131.887 484.197 127.507 484.197 124.211C484.197 117.865 487.114 116.536 489.563 116.536H505.805C509.516 116.536 511.171 118.86 511.171 124.07Z" fill="black"/>
<path d="M655.289 146.28L655.074 146.948C652.743 154.074 645.989 158.327 637 158.327C624.655 158.327 616.987 149.902 616.987 136.333C616.987 122.675 624.603 114.198 636.858 114.198C645.885 114.198 652.862 118.555 655.074 125.57L655.289 126.245H675.279L675.109 125.124C672.481 108.186 657.108 96.7988 636.866 96.7988C613.254 96.7988 596.768 112.996 596.768 136.185C596.768 159.826 612.994 175.719 637.148 175.719C657.435 175.719 672.34 164.599 675.109 147.401L675.287 146.272H655.289V146.28Z" fill="black"/>
<path d="M580.26 113.07H580.646V129.801V161.801V182.986C580.646 185.228 578.189 186.586 576.274 185.436C568.094 180.514 562.593 172.706 561.02 162.93L560.982 162.707L560.834 161.809V113.078H561.22H580.26V113.07Z" fill="black"/>
<path d="M306.994 125.703L272.24 69.5934H249.749V174.219H270.547V145.841C270.547 132.562 270.213 118.621 269.664 100.888L299.831 147.86H314.031L343.863 101.126C343.217 116.684 342.883 131.715 342.883 145.848V174.226H363.541V69.5859H341.473L306.994 125.703Z" fill="black"/>
<path d="M587.709 85.2153L576.322 80.3162C576.233 80.2791 576.159 80.2049 576.122 80.1158L571.104 68.603C570.971 68.2912 570.525 68.2912 570.392 68.603L565.366 80.1084C565.329 80.1975 565.255 80.2717 565.166 80.3088L553.779 85.2079C553.467 85.3415 553.467 85.7869 553.779 85.9279L561.224 89.1346L565.166 90.827C565.255 90.8641 565.329 90.9384 565.366 91.0274L570.384 102.54C570.518 102.852 570.963 102.852 571.097 102.54L576.115 91.0274C576.152 90.9384 576.226 90.8641 576.315 90.827L580.257 89.1346L587.702 85.9279C588.021 85.7943 588.021 85.3489 587.709 85.2153Z" fill="black"/>
<path d="M447.893 115.215C444.144 103.398 433.107 96.7988 416.316 96.7988C404.38 96.7988 394.909 100.05 388.911 106.204C384.22 111.021 381.837 117.523 382.03 125.013L382.052 125.956H400.446L400.409 124.954C400.29 121.576 401.233 118.822 403.2 116.781C405.642 114.25 409.636 112.914 414.75 112.914C424.132 112.914 429.514 117.108 429.514 124.419V126.809L404.573 129.548C388.748 131.323 380.033 139.673 380.033 153.057C380.033 166.826 389.928 175.719 405.249 175.719C416.531 175.719 426.255 171.05 431.043 163.575L431.132 163.85V163.909L431.266 164.74L431.296 164.948C431.845 168.34 432.914 171.473 434.428 174.308C436.967 179.059 440.774 182.956 445.577 185.777C447.232 186.749 449.318 185.48 449.318 183.557V174.308V163.916V145.523V124.991C449.326 121.413 448.828 118.162 447.893 115.215ZM429.521 142.568C429.521 152.604 421.646 159.886 410.786 159.886C403.638 159.886 399.704 156.605 399.704 150.652C399.704 145.292 403 142.271 409.777 141.41L425.84 139.332C427.792 139.079 429.521 140.601 429.521 142.568Z" fill="black"/>
<path fill-rule="evenodd" clip-rule="evenodd" d="M39.8654 126.389C39.1588 140.605 33.8982 151.871 28.1155 151.552C22.3328 151.233 18.2179 139.45 18.9245 125.233C19.5635 118.916 20.9834 113.143 22.8265 108.725C21.4994 108.232 19.163 106.412 17.1574 104.849C15.655 103.679 14.3383 102.653 13.7703 102.438L11.6544 125.734L6.68408 162.103C6.88092 166.203 9.22664 169.94 12.8518 171.867L69.9195 202.045C71.7731 203.017 73.8071 203.461 75.8412 203.379C77.8588 203.28 79.8436 202.654 81.6152 201.518L135.747 166.335C139.208 164.096 141.193 160.194 141.029 156.061L136.649 142.577C131.24 142.022 121.558 137.572 111.094 132.762C99.8198 127.58 87.6369 121.98 78.9086 120.383L75.8412 187.524L72.7573 118.753L72.3472 118.556C72.1176 118.518 71.0455 118.274 69.6155 117.948L69.6154 117.947C68.0752 117.596 66.12 117.15 64.3552 116.766C66.9605 121.72 68.415 129.191 68.0042 137.456C67.2856 151.912 61.1326 163.325 54.261 162.945C47.3895 162.566 42.4015 150.54 43.12 136.083C44.3485 125.447 46.4718 118.433 49.3851 114.5L38.8722 112.266C39.7409 116.36 40.1227 121.213 39.8654 126.389Z" fill="black"/>
<path d="M62.0773 119.512C62.0771 119.512 62.0776 119.512 62.0773 119.512C62.0744 119.535 62.0706 119.558 62.0675 119.582C61.2627 125.68 56.8364 129.912 52.1641 129.067C56.8248 129.996 59.9444 135.662 59.1396 141.76L59.137 141.78L59.1382 141.78L59.1408 141.761C59.9468 135.654 64.3844 131.419 69.0641 132.279C64.3919 131.362 61.2616 125.689 62.0675 119.582C62.0706 119.558 62.0744 119.535 62.0773 119.512Z" fill="black"/>
<path d="M69.1448 132.295C69.1754 132.3 69.206 132.306 69.2366 132.311L69.236 132.313C69.2057 132.307 69.1753 132.301 69.1448 132.295Z" fill="black"/>
<path d="M35.0541 113.58C35.0539 113.58 35.0543 113.58 35.0541 113.58C35.0518 113.599 35.0489 113.617 35.0464 113.636C34.4166 118.515 30.9525 121.9 27.2959 121.224C30.9434 121.968 33.3849 126.5 32.755 131.379L32.7529 131.395L32.7539 131.395L32.7559 131.379C33.3867 126.494 36.8597 123.106 40.522 123.794C36.8655 123.06 34.4157 118.522 35.0464 113.636C35.0489 113.617 35.0518 113.599 35.0541 113.58Z" fill="black"/>
<path d="M40.5852 123.806C40.6091 123.811 40.6331 123.815 40.657 123.819L40.6565 123.821C40.6328 123.816 40.609 123.811 40.5852 123.806Z" fill="black"/>
<path fill-rule="evenodd" clip-rule="evenodd" d="M130.243 131.746C141.798 135.3 152.392 135.84 163.526 129.422C164.201 129.033 164.261 127.383 163.451 127.548C147.695 130.397 131.759 125.254 123.701 118.552C123.641 118.507 94.3352 104.337 81.7456 105.717C89.9536 103.618 98.6717 105.432 106.79 107.201C112.237 108.506 117.534 110.08 122.801 111.894C122.26 100.964 122.711 80.3319 122.906 78.2178C123.066 76.542 123.222 74.8654 123.378 73.1888L123.379 73.1805C123.941 67.1493 124.504 61.1169 125.232 55.112C125.297 54.6192 125.415 53.9595 125.526 53.3347L125.526 53.3344C125.669 52.5333 125.802 51.7895 125.802 51.5284C125.802 45.4259 125.652 39.1283 123.146 33.4606C126.117 38.0938 127.663 43.3717 128.638 48.7995C133.395 49.8941 144.964 56.6264 154.537 65.263C154.718 65.4129 154.898 65.5029 155.093 65.5328L155.948 65.3079C156.008 65.2929 156.068 65.263 156.098 65.203L156.518 64.5432C156.533 64.4083 156.518 64.2884 156.488 64.1384C154.477 54.1224 152.091 44.2563 146.689 35.5598C141.557 27.2681 135.75 19.3362 129.838 11.5543C118.584 -3.19978 111.922 -3.6196 98.7167 9.12532C93.0238 14.6055 81.1742 26.2763 70.0978 37.1855C60.4452 46.6924 51.3798 55.6209 47.4878 59.3703C47.2579 59.5861 42.462 64.9234 37.3274 70.6377C31.4338 77.1966 25.094 84.2522 24.7004 84.6296C23.9843 83.996 23.1119 83.2869 22.1662 82.5182L22.166 82.518C19.9112 80.6852 17.2397 78.5137 15.2753 76.219C10.6619 71.9701 7.40123 66.6861 5.11377 62.9009C4.37178 61.2604 3.65954 59.5922 2.96915 57.8983C2.7847 57.4458 2.22686 56.4138 1.66098 56.2665C0.850681 55.9217 -0.10982 56.5664 0.010224 57.4211C1.10563 65.8627 6.4326 91.0827 27.9656 101.339C31.5669 103.048 35.6334 104.322 40.2101 105.072C41.9208 105.342 43.7064 105.567 45.5821 105.672C71.8868 107.171 91.9493 115.883 108.951 123.305C108.951 123.305 119.199 129.377 130.243 131.746Z" fill="black"/>
</svg>
