<svg xmlns="http://www.w3.org/2000/svg" xmlns:xlink="http://www.w3.org/1999/xlink" viewBox="0 0 172 32"><path d="M 42.158 10.219 L 42.158 10.535 L 43.806 10.535 L 43.806 23.675 L 46.087 23.675 L 46.087 17.106 L 55.657 17.106 C 56.647 17.106 57.5 16.759 58.196 16.065 C 58.909 15.363 59.266 14.503 59.266 13.502 L 59.266 11.858 C 59.266 10.869 58.913 10.018 58.209 9.324 C 57.506 8.615 56.649 8.259 55.657 8.259 L 42.158 8.259 L 42.158 10.219 Z M 55.657 14.824 L 46.087 14.824 L 46.087 10.532 L 55.657 10.532 C 56.018 10.532 56.323 10.659 56.595 10.926 C 56.862 11.196 56.99 11.504 56.99 11.858 L 56.99 13.502 C 56.99 13.87 56.861 14.18 56.597 14.444 C 56.354 14.676 56.079 14.801 55.767 14.824 Z M 101.499 18.432 C 101.499 17.478 101.17 16.653 100.515 15.973 C 101.167 15.288 101.495 14.46 101.495 13.502 L 101.495 11.858 C 101.495 10.869 101.141 10.018 100.437 9.324 C 99.734 8.615 98.878 8.258 97.886 8.258 L 84.386 8.258 L 84.386 10.535 L 86.034 10.535 L 86.034 23.679 L 88.315 23.679 L 88.315 17.109 L 97.886 17.109 C 98.246 17.109 98.551 17.237 98.823 17.504 C 99.09 17.774 99.218 18.082 99.218 18.436 L 99.218 20.079 C 99.218 21.075 99.566 21.93 100.263 22.625 C 100.968 23.328 101.829 23.679 102.831 23.679 L 103.147 23.679 L 103.147 21.402 L 102.831 21.402 C 102.458 21.402 102.147 21.276 101.882 21.02 C 101.624 20.752 101.499 20.444 101.499 20.076 Z M 97.886 14.824 L 88.315 14.824 L 88.315 10.532 L 97.886 10.532 C 98.246 10.532 98.551 10.659 98.823 10.926 C 99.09 11.197 99.218 11.504 99.218 11.858 L 99.218 13.502 C 99.218 13.87 99.089 14.18 98.825 14.444 C 98.582 14.676 98.308 14.802 97.995 14.825 L 97.886 14.825 Z M 152.598 23.359 L 152.598 23.675 L 155.603 23.675 L 155.69 23.499 L 157.231 20.388 L 166.727 20.388 L 168.296 23.501 L 168.383 23.675 L 171.355 23.675 L 171.355 21.399 L 169.585 21.399 L 163.083 8.433 L 162.996 8.258 L 160.957 8.258 L 160.869 8.433 L 154.367 21.398 L 152.598 21.398 L 152.598 23.358 Z M 158.364 18.116 L 161.972 10.924 L 165.581 18.116 Z M 128.583 21.398 L 128.267 21.398 L 128.267 23.679 L 132.196 23.679 L 132.196 10.539 L 133.37 10.539 L 143.082 23.552 L 143.176 23.679 L 148.592 23.679 L 148.592 21.402 L 146.944 21.402 L 146.944 10.535 L 148.592 10.535 L 148.592 8.258 L 144.671 8.258 L 144.671 8.575 L 144.663 21.398 L 144.313 21.398 L 134.602 8.385 L 134.507 8.258 L 128.267 8.258 L 128.267 10.535 L 129.915 10.535 L 129.915 21.398 Z M 64.92 23.359 L 64.92 23.675 L 80.381 23.675 L 80.381 21.391 L 67.201 21.391 L 67.201 17.105 L 75.439 17.105 L 75.439 14.828 L 67.201 14.828 L 67.201 10.535 L 80.381 10.535 L 80.381 8.258 L 63.272 8.258 L 63.272 10.535 L 64.92 10.535 Z M 108.801 23.359 L 108.801 23.675 L 124.261 23.675 L 124.261 21.391 L 111.082 21.391 L 111.082 17.105 L 119.32 17.105 L 119.32 14.828 L 111.082 14.828 L 111.082 10.535 L 124.261 10.535 L 124.261 8.258 L 107.152 8.258 L 107.152 10.535 L 108.801 10.535 Z" fill="rgb(0,0,0)" stroke-width="0.802" stroke="rgb(0,0,0)" stroke-miterlimit="10" stroke-dasharray=""></path><path d="M 33.236 15.961 L 33.236 15.912 C 33.222 13.774 32.528 11.641 31.16 9.918 C 30.206 8.714 28.937 7.837 27.776 6.852 C 26.768 5.997 25.986 4.903 25.151 3.882 C 23.639 2.1 21.647 0.932 19.471 0.392 C 19.442 0.385 19.413 0.379 19.386 0.37 C 19.296 0.347 19.206 0.325 19.114 0.305 C 18.363 0.134 17.598 0.035 16.828 0.008 C 16.757 0.001 16.686 -0.001 16.614 0.001 C 16.558 0.001 16.473 0.001 16.374 0.008 C 15.666 0.035 14.962 0.121 14.268 0.264 C 12.651 0.579 11.095 1.231 9.783 2.239 C 8.618 3.135 7.739 4.312 6.816 5.441 C 5.001 7.659 2.367 8.901 1.033 11.558 C 0.586 12.457 0.28 13.42 0.126 14.413 C 0.108 14.523 0.092 14.636 0.077 14.748 C 0.07 14.805 0.061 14.863 0.054 14.919 C 0.032 15.12 0.018 15.32 0.009 15.52 C 0.009 15.54 0.007 15.563 0.007 15.583 C -0.002 15.788 -0.002 15.993 0.005 16.197 L 0.005 16.285 C 0.015 16.559 0.036 16.833 0.068 17.106 C 0.079 17.203 0.092 17.299 0.106 17.396 C 0.348 19.061 1.006 20.665 2.08 22.015 C 2.976 23.142 4.153 24.006 5.258 24.913 C 6.23 25.711 6.973 26.688 7.766 27.657 C 8.602 28.679 9.556 29.525 10.61 30.189 C 10.614 30.191 10.617 30.194 10.62 30.198 C 10.625 30.2 10.63 30.204 10.636 30.207 C 10.688 30.24 10.74 30.272 10.794 30.303 C 13.902 32.288 18.198 32.454 21.49 30.834 C 21.833 30.665 22.164 30.474 22.481 30.261 C 23.662 29.527 24.727 28.569 25.676 27.408 C 26.478 26.427 27.248 25.513 28.23 24.708 C 29.344 23.795 30.494 22.922 31.361 21.752 C 32.607 20.069 33.227 18.04 33.236 16.011 L 33.236 15.956 Z M 12.035 29.295 C 10.774 28.254 9.882 26.836 9.532 25.273 C 9.506 25.16 9.53 25.042 9.597 24.948 C 9.663 24.854 9.767 24.793 9.882 24.78 C 10.062 24.761 10.242 24.736 10.421 24.706 C 13.246 24.213 15.422 22.395 16.592 19.993 C 16.707 20.233 16.828 20.469 16.963 20.699 C 18.326 23.003 20.661 24.4 23.206 24.753 C 23.26 24.411 23.285 24.065 23.282 23.718 C 21.751 23.327 20.376 22.24 19.44 20.841 C 17.722 18.274 17.515 14.782 18.896 12.017 C 19.658 10.494 21.003 9.056 22.604 8.392 C 23.219 8.138 23.862 8.687 23.738 9.342 C 23.432 10.952 22.584 12.408 21.335 13.468 C 20.544 14.14 19.621 14.641 18.627 14.937 C 18.589 15.261 18.571 15.588 18.571 15.914 L 18.566 15.914 C 18.566 15.941 18.566 15.97 18.568 15.997 L 18.568 16.053 L 18.571 16.053 C 18.575 16.364 18.593 16.674 18.629 16.98 C 20.821 17.657 22.685 19.331 23.476 21.529 C 24.457 24.256 23.525 27.334 21.335 29.188 C 21.236 29.271 21.133 29.349 21.03 29.426 C 18.216 31.413 14.744 31.296 12.038 29.298 Z M 12.035 2.64 C 15.079 0.379 18.804 0.707 21.549 2.941 C 22.398 3.724 23.074 4.698 23.471 5.807 C 23.572 6.089 23.651 6.375 23.711 6.662 C 23.734 6.772 23.71 6.886 23.644 6.978 C 23.579 7.069 23.479 7.128 23.367 7.142 C 21.221 7.4 19.182 8.402 17.753 10.107 C 17.291 10.659 16.901 11.267 16.592 11.918 C 15.613 9.891 13.917 8.262 11.656 7.522 C 11.119 7.349 10.567 7.225 10.008 7.153 C 9.958 7.488 9.936 7.826 9.942 8.159 L 9.971 8.166 C 13.345 9.101 15.175 12.665 15.233 15.959 C 15.18 18.931 13.767 21.961 11.023 23.34 C 10.877 23.412 10.733 23.477 10.587 23.534 C 9.981 23.77 9.349 23.262 9.46 22.62 L 9.46 22.607 C 9.934 19.918 12.035 17.781 14.575 16.983 C 14.622 16.632 14.649 16.287 14.656 15.956 C 14.647 15.615 14.619 15.274 14.571 14.935 C 13.926 14.742 13.311 14.459 12.745 14.094 C 10.344 12.543 8.961 9.742 9.462 6.887 C 9.743 5.286 10.6 3.879 11.784 2.836 C 11.867 2.768 11.948 2.699 12.033 2.635 Z M 30.754 16.911 C 30.521 19.277 29.548 21.14 27.942 22.542 C 27.835 22.636 27.729 22.722 27.626 22.801 C 27.024 23.264 26.159 22.927 25.984 22.187 C 25.984 22.182 25.982 22.177 25.979 22.173 C 25.142 18.717 22.188 16.67 18.921 15.982 C 19.815 15.799 20.682 15.514 21.488 15.118 C 23.704 14.027 25.42 12.028 25.979 9.702 C 26.152 8.978 26.999 8.667 27.606 9.099 C 27.828 9.257 28.037 9.428 28.236 9.61 C 30.056 11.581 31.026 14.135 30.752 16.908 Z M 5.002 9.612 C 5.202 9.43 5.413 9.259 5.633 9.101 C 6.239 8.669 7.086 8.982 7.259 9.704 C 7.818 12.028 9.534 14.028 11.751 15.119 C 12.557 15.515 13.424 15.801 14.317 15.983 C 11.05 16.672 8.097 18.717 7.259 22.175 C 7.259 22.18 7.257 22.184 7.255 22.188 C 7.077 22.926 6.212 23.264 5.613 22.803 C 5.504 22.72 5.399 22.634 5.296 22.544 C 3.691 21.144 2.718 19.279 2.485 16.913 C 2.211 14.139 3.181 11.585 5 9.614 Z" fill="rgb(0,0,0)"></path></svg>