<svg width="1020" height="256" viewBox="0 0 1020 256" fill="none" xmlns="http://www.w3.org/2000/svg">
    <g clip-path="url(#clip0_19_77)">
        <path
            d="M428.92 127.935C428.92 132.719 428.425 137.304 427.434 141.693C426.443 146.032 425.007 150.1 423.125 153.897C421.292 157.694 419.039 161.195 416.364 164.4C413.689 167.556 410.643 170.342 407.225 172.758L434.492 202.344H417.998C415.621 202.344 413.466 202.024 411.534 201.383C409.652 200.742 407.919 199.558 406.334 197.833L390.583 180.525C388.056 181.215 385.456 181.733 382.781 182.078C380.156 182.423 377.407 182.596 374.534 182.596C366.411 182.596 358.981 181.24 352.245 178.528C345.558 175.766 339.813 171.945 335.008 167.063C330.253 162.181 326.563 156.412 323.938 149.755C321.313 143.049 320 135.776 320 127.935C320 120.095 321.313 112.847 323.938 106.19C326.563 99.4839 330.253 93.6899 335.008 88.8079C339.813 83.9259 345.558 80.1289 352.245 77.4169C358.981 74.6559 366.411 73.2749 374.534 73.2749C382.658 73.2749 390.063 74.6559 396.749 77.4169C403.436 80.1789 409.157 83.9999 413.912 88.8819C418.667 93.7139 422.357 99.4839 424.982 106.19C427.607 112.847 428.92 120.095 428.92 127.935ZM408.414 127.935C408.414 122.068 407.621 116.816 406.036 112.181C404.501 107.496 402.272 103.527 399.35 100.272C396.427 97.0179 392.861 94.5279 388.651 92.8019C384.49 91.0759 379.785 90.2129 374.534 90.2129C369.284 90.2129 364.554 91.0759 360.344 92.8019C356.133 94.5279 352.542 97.0179 349.57 100.272C346.648 103.527 344.394 107.496 342.809 112.181C341.224 116.816 340.432 122.068 340.432 127.935C340.432 133.803 341.224 139.08 342.809 143.764C344.394 148.399 346.648 152.344 349.57 155.598C352.542 158.804 356.133 161.269 360.344 162.995C364.554 164.721 369.284 165.584 374.534 165.584C379.785 165.584 384.49 164.721 388.651 162.995C392.861 161.269 396.427 158.804 399.35 155.598C402.272 152.344 404.501 148.399 406.036 143.764C407.621 139.08 408.414 133.803 408.414 127.935Z"
            fill="#10151B" />
        <path
            d="M454.524 105.524V153.749C454.524 158.384 455.589 161.984 457.718 164.548C459.898 167.063 463.142 168.32 467.451 168.32C470.621 168.32 473.593 167.63 476.367 166.249C479.141 164.819 481.766 162.872 484.243 160.406V105.524H502.594V181.412H491.375C488.998 181.412 487.437 180.303 486.694 178.084L485.431 172.019C483.846 173.597 482.212 175.051 480.528 176.383C478.844 177.665 477.036 178.774 475.104 179.711C473.222 180.599 471.166 181.289 468.937 181.782C466.758 182.325 464.405 182.596 461.879 182.596C457.718 182.596 454.028 181.905 450.809 180.525C447.639 179.095 444.964 177.098 442.785 174.534C440.605 171.969 438.946 168.937 437.807 165.436C436.717 161.885 436.172 157.99 436.172 153.749V105.524H454.524Z"
            fill="#10151B" />
        <path
            d="M535.784 105.524V181.412H517.433V105.524H535.784ZM538.533 83.4079C538.533 84.9859 538.211 86.4659 537.567 87.8459C536.923 89.2269 536.057 90.4349 534.967 91.4709C533.927 92.5059 532.688 93.3439 531.252 93.9849C529.816 94.5769 528.28 94.8729 526.646 94.8729C525.061 94.8729 523.55 94.5769 522.113 93.9849C520.727 93.3439 519.513 92.5059 518.473 91.4709C517.433 90.4349 516.591 89.2269 515.947 87.8459C515.352 86.4659 515.055 84.9859 515.055 83.4079C515.055 81.7809 515.352 80.2529 515.947 78.8229C516.591 77.3929 517.433 76.1599 518.473 75.1239C519.513 74.0889 520.727 73.2749 522.113 72.6829C523.55 72.0419 525.061 71.7219 526.646 71.7219C528.28 71.7219 529.816 72.0419 531.252 72.6829C532.688 73.2749 533.927 74.0889 534.967 75.1239C536.057 76.1599 536.923 77.3929 537.567 78.8229C538.211 80.2529 538.533 81.7809 538.533 83.4079Z"
            fill="#10151B" />
        <path
            d="M604.21 121.574C603.665 122.265 603.12 122.807 602.575 123.202C602.08 123.596 601.337 123.793 600.346 123.793C599.405 123.793 598.489 123.522 597.597 122.98C596.706 122.388 595.641 121.747 594.403 121.057C593.164 120.317 591.678 119.676 589.945 119.134C588.261 118.542 586.156 118.246 583.629 118.246C580.41 118.246 577.587 118.838 575.16 120.021C572.732 121.155 570.702 122.807 569.067 124.977C567.482 127.146 566.293 129.785 565.501 132.891C564.708 135.948 564.312 139.425 564.312 143.32C564.312 147.364 564.733 150.963 565.575 154.119C566.467 157.275 567.73 159.938 569.364 162.107C570.999 164.228 572.98 165.855 575.308 166.989C577.636 168.074 580.261 168.616 583.184 168.616C586.106 168.616 588.459 168.271 590.242 167.581C592.075 166.841 593.61 166.052 594.848 165.214C596.087 164.326 597.152 163.537 598.043 162.847C598.984 162.107 600.024 161.738 601.164 161.738C602.65 161.738 603.764 162.305 604.507 163.439L609.782 170.096C607.751 172.463 605.547 174.46 603.17 176.087C600.792 177.665 598.316 178.947 595.74 179.933C593.214 180.87 590.589 181.536 587.864 181.93C585.14 182.325 582.441 182.522 579.766 182.522C575.06 182.522 570.627 181.659 566.467 179.933C562.306 178.158 558.665 175.594 555.545 172.241C552.474 168.888 550.022 164.795 548.19 159.962C546.406 155.081 545.515 149.533 545.515 143.32C545.515 137.748 546.307 132.595 547.892 127.861C549.527 123.078 551.904 118.961 555.025 115.509C558.145 112.008 562.009 109.272 566.615 107.299C571.222 105.327 576.522 104.341 582.515 104.341C588.211 104.341 593.189 105.253 597.449 107.077C601.758 108.902 605.621 111.515 609.039 114.918L604.21 121.574Z"
            fill="#10151B" />
        <path
            d="M634.087 71.5V134.444H637.504C638.743 134.444 639.709 134.272 640.402 133.927C641.095 133.581 641.838 132.94 642.631 132.004L661.577 108.704C662.419 107.718 663.31 106.954 664.251 106.412C665.193 105.82 666.431 105.524 667.966 105.524H684.758L661.057 133.705C660.215 134.74 659.348 135.702 658.456 136.589C657.565 137.428 656.599 138.167 655.559 138.808C656.599 139.548 657.515 140.411 658.308 141.397C659.1 142.383 659.893 143.443 660.685 144.578L686.095 181.412H669.527C668.09 181.412 666.877 181.166 665.886 180.673C664.895 180.18 664.004 179.341 663.211 178.158L643.82 149.385C643.077 148.251 642.334 147.512 641.591 147.166C640.848 146.821 639.733 146.649 638.247 146.649H634.087V181.412H615.735V71.5H634.087Z"
            fill="#10151B" />
        <path
            d="M703.073 74.459C703.965 74.459 704.708 74.508 705.302 74.607C705.896 74.656 706.416 74.804 706.862 75.05C707.357 75.248 707.828 75.568 708.274 76.012C708.72 76.406 709.215 76.949 709.76 77.639L766.152 149.163C765.953 147.438 765.805 145.761 765.706 144.134C765.656 142.457 765.631 140.904 765.631 139.474V74.459H783.24V181.412H772.913C771.328 181.412 770.015 181.166 768.975 180.673C767.935 180.18 766.919 179.292 765.929 178.01L709.76 106.781C709.908 108.359 710.007 109.937 710.057 111.515C710.156 113.044 710.206 114.449 710.206 115.731V181.412H692.597V74.459H703.073Z"
            fill="#10151B" />
        <path
            d="M830.472 104.341C836.168 104.341 841.32 105.253 845.926 107.077C850.582 108.902 854.545 111.491 857.814 114.844C861.083 118.197 863.609 122.289 865.392 127.122C867.175 131.954 868.067 137.354 868.067 143.32C868.067 149.336 867.175 154.76 865.392 159.593C863.609 164.425 861.083 168.542 857.814 171.945C854.545 175.347 850.582 177.961 845.926 179.785C841.32 181.61 836.168 182.522 830.472 182.522C824.776 182.522 819.6 181.61 814.944 179.785C810.288 177.961 806.301 175.347 802.982 171.945C799.713 168.542 797.162 164.425 795.33 159.593C793.546 154.76 792.655 149.336 792.655 143.32C792.655 137.354 793.546 131.954 795.33 127.122C797.162 122.289 799.713 118.197 802.982 114.844C806.301 111.491 810.288 108.902 814.944 107.077C819.6 105.253 824.776 104.341 830.472 104.341ZM830.472 168.468C836.812 168.468 841.493 166.348 844.514 162.107C847.585 157.867 849.121 151.654 849.121 143.468C849.121 135.283 847.585 129.045 844.514 124.755C841.493 120.465 836.812 118.32 830.472 118.32C824.033 118.32 819.278 120.49 816.207 124.829C813.136 129.119 811.601 135.332 811.601 143.468C811.601 151.604 813.136 157.817 816.207 162.107C819.278 166.348 824.033 168.468 830.472 168.468Z"
            fill="#10151B" />
        <path
            d="M930.084 181.412C927.707 181.412 926.146 180.303 925.403 178.084L923.918 170.761C922.333 172.536 920.673 174.139 918.94 175.569C917.206 176.999 915.324 178.232 913.293 179.267C911.312 180.303 909.157 181.092 906.829 181.634C904.551 182.226 902.074 182.522 899.399 182.522C895.239 182.522 891.425 181.659 887.958 179.933C884.49 178.207 881.494 175.717 878.968 172.463C876.491 169.159 874.559 165.091 873.172 160.258C871.835 155.426 871.166 149.903 871.166 143.69C871.166 138.069 871.934 132.842 873.47 128.009C875.005 123.177 877.209 118.986 880.082 115.435C882.955 111.885 886.397 109.124 890.409 107.151C894.421 105.13 898.929 104.119 903.932 104.119C908.191 104.119 911.832 104.809 914.853 106.19C917.875 107.521 920.574 109.321 922.952 111.589V71.5H941.3V181.412H930.084ZM905.64 168.025C909.454 168.025 912.699 167.236 915.373 165.658C918.048 164.08 920.574 161.836 922.952 158.927V124.903C920.871 122.388 918.593 120.613 916.116 119.577C913.689 118.542 911.064 118.024 908.241 118.024C905.467 118.024 902.941 118.542 900.662 119.577C898.434 120.613 896.527 122.191 894.942 124.311C893.406 126.382 892.217 129.045 891.375 132.299C890.533 135.505 890.112 139.301 890.112 143.69C890.112 148.128 890.459 151.9 891.152 155.007C891.895 158.064 892.935 160.579 894.273 162.551C895.61 164.474 897.245 165.88 899.176 166.767C901.108 167.605 903.263 168.025 905.64 168.025Z"
            fill="#10151B" />
        <path
            d="M986.75 104.341C991.55 104.341 995.96 105.105 999.97 106.633C1004.03 108.162 1007.52 110.406 1010.45 113.364C1013.37 116.274 1015.65 119.873 1017.28 124.163C1018.92 128.404 1019.73 133.261 1019.73 138.734C1019.73 140.115 1019.66 141.274 1019.51 142.211C1019.41 143.098 1019.19 143.813 1018.84 144.356C1018.54 144.849 1018.12 145.219 1017.58 145.465C1017.03 145.662 1016.34 145.761 1015.5 145.761H968.39C968.94 153.552 971.04 159.272 974.71 162.921C978.37 166.57 983.23 168.394 989.27 168.394C992.24 168.394 994.79 168.049 996.92 167.359C999.1 166.669 1000.99 165.904 1002.57 165.066C1004.21 164.228 1005.62 163.463 1006.81 162.773C1008.04 162.083 1009.23 161.738 1010.37 161.738C1011.11 161.738 1011.76 161.885 1012.3 162.181C1012.85 162.477 1013.32 162.896 1013.72 163.439L1019.06 170.096C1017.03 172.463 1014.76 174.46 1012.23 176.087C1009.7 177.665 1007.05 178.947 1004.28 179.933C1001.56 180.87 998.76 181.536 995.88 181.93C993.06 182.325 990.31 182.522 987.64 182.522C982.34 182.522 977.41 181.659 972.85 179.933C968.29 178.158 964.33 175.569 960.96 172.167C957.6 168.715 954.95 164.474 953.01 159.445C951.08 154.366 950.12 148.498 950.12 141.841C950.12 136.663 950.96 131.806 952.64 127.27C954.33 122.684 956.73 118.714 959.85 115.361C963.02 111.959 966.86 109.272 971.37 107.299C975.92 105.327 981.05 104.341 986.75 104.341ZM987.12 117.432C981.77 117.432 977.58 118.936 974.56 121.944C971.54 124.952 969.61 129.218 968.77 134.74H1003.24C1003.24 132.373 1002.92 130.154 1002.27 128.083C1001.63 125.963 1000.64 124.114 999.3 122.536C997.96 120.958 996.28 119.725 994.25 118.838C992.22 117.901 989.84 117.432 987.12 117.432Z"
            fill="#10151B" />
        <mask id="mask0_19_77" style="mask-type:luminance" maskUnits="userSpaceOnUse" x="0" y="0" width="256"
            height="256">
            <path d="M256 0H0V256H256V0Z" fill="white" />
        </mask>
        <g mask="url(#mask0_19_77)">
            <path fill-rule="evenodd" clip-rule="evenodd"
                d="M128 208C149.732 208 169.44 199.335 183.857 185.271C184.252 184.886 184.885 184.885 185.276 185.276L218.51 218.51L253.004 253.005C253.751 253.751 252.982 254.994 251.981 254.66L196.931 236.31C196.646 236.215 196.333 236.254 196.079 236.414C176.36 248.822 153.018 256 128 256C57.308 256 0 198.692 0 128C0 57.308 57.308 0 128 0C198.692 0 256 57.308 256 128C256 158.194 245.545 185.946 228.059 207.834C227.689 208.297 226.999 208.332 226.58 207.913L158.995 140.329C158.249 139.582 159.017 138.339 160.018 138.673L202.966 152.989C203.49 153.163 204.057 152.881 204.225 152.354C206.677 144.675 208 136.492 208 128C208 83.817 172.183 48 128 48C83.817 48 48 83.817 48 128C48 172.183 83.817 208 128 208Z"
                fill="#009FD1" />
        </g>
    </g>
    <defs>
        <clipPath id="clip0_19_77">
            <rect width="1020" height="256" fill="white" />
        </clipPath>
    </defs>
</svg>