<svg width="1422" height="419" viewBox="0 0 1422 419" fill="none" xmlns="http://www.w3.org/2000/svg">
<path fill-rule="evenodd" clip-rule="evenodd" d="M357.838 61.3637C318.275 21.779 265.605 0 209.647 0V18.051C260.795 18.051 308.9 37.9661 345.076 74.1172C381.253 110.268 401.182 158.339 401.182 209.451C401.182 260.563 381.253 308.634 345.076 344.785C308.9 380.936 260.795 400.851 209.647 400.851C158.499 400.851 110.395 380.936 74.2184 344.785C38.0418 308.634 18.1128 260.563 18.1128 209.451C18.1128 173.104 28.1755 138.277 47.27 107.865C53.504 111.102 60.5233 112.966 67.9844 112.966C92.822 112.966 113.046 92.7569 113.046 67.9367C113.046 43.1165 92.822 22.9072 67.9844 22.9072C43.1468 22.9072 22.9233 43.1165 22.9233 67.9367C22.9233 78.7281 26.752 88.6856 33.1332 96.4357C11.4371 130.134 0 168.983 0 209.5C0 265.468 21.7943 318.052 61.4069 357.636C101.019 397.221 153.64 419 209.647 419C265.655 419 318.275 397.221 357.888 357.636C397.5 318.052 419.294 265.468 419.294 209.5C419.294 153.532 397.5 100.948 357.888 61.3637H357.838ZM67.9844 40.9582C82.8575 40.9582 94.9818 53.074 94.9818 67.9367C94.9818 82.7994 82.8575 94.9151 67.9844 94.9151C53.1113 94.9151 40.987 82.7994 40.987 67.9367C40.987 53.074 53.1113 40.9582 67.9844 40.9582Z" fill="black"/>
<path d="M209.647 309.712C265.016 309.712 309.93 264.83 309.93 209.5C309.93 154.169 265.016 109.287 209.647 109.287C154.277 109.287 109.363 154.169 109.363 209.5C109.363 264.83 154.277 309.712 209.647 309.712Z" fill="black"/>
<path fill-rule="evenodd" clip-rule="evenodd" d="M927.74 180.645C917.924 180.645 909.352 178.311 902.024 173.644C894.834 168.976 889.304 162.47 885.433 154.124C881.561 145.779 879.626 136.232 879.626 125.482C879.626 114.732 881.561 105.184 885.433 96.8392C889.304 88.4939 894.903 81.9875 902.231 77.3198C909.559 72.6521 918.2 70.3183 928.155 70.3183C934.653 70.3183 940.667 71.662 946.198 74.3495C951.866 77.0369 956.36 80.573 959.678 84.9578V26.1875H984.98V178.948H959.678V165.581C956.498 170.108 952.005 173.785 946.198 176.614C940.529 179.302 934.377 180.645 927.74 180.645ZM932.925 158.156C938.593 158.156 943.502 156.812 947.65 154.124C951.936 151.437 955.254 147.618 957.604 142.667C959.955 137.717 961.13 131.988 961.13 125.482C961.13 115.581 958.572 107.66 953.456 101.719C948.341 95.7784 941.566 92.808 933.132 92.808C927.464 92.808 922.486 94.1517 918.2 96.8392C914.052 99.5266 910.803 103.346 908.453 108.296C906.102 113.247 904.927 118.975 904.927 125.482C904.927 135.383 907.485 143.304 912.601 149.244C917.716 155.185 924.491 158.156 932.925 158.156Z" fill="black"/>
<path fill-rule="evenodd" clip-rule="evenodd" d="M1029.05 172.795C1037.07 178.029 1046.61 180.645 1057.67 180.645C1070.67 180.645 1081.59 177.251 1090.44 170.461C1099.43 163.672 1104.89 154.619 1106.82 143.304H1081.94C1080.69 148.396 1077.93 152.286 1073.64 154.973C1069.49 157.66 1064.17 159.004 1057.67 159.004C1051.86 159.004 1046.75 157.59 1042.32 154.761C1038.04 151.932 1034.72 147.972 1032.37 142.88C1030.77 139.313 1029.71 135.353 1029.2 130.998H1105.99C1106.27 128.169 1106.41 125.128 1106.41 121.875C1106.41 112.964 1104.54 104.619 1100.81 96.8392C1097.08 89.0598 1091.41 82.6947 1083.8 77.7442C1076.2 72.7936 1066.87 70.3183 1055.8 70.3183C1044.88 70.3183 1035.55 72.8643 1027.81 77.9563C1020.2 83.0484 1014.4 89.767 1010.39 98.1122C1006.52 106.457 1004.58 115.439 1004.58 125.057C1004.58 134.676 1006.65 143.728 1010.8 152.215C1015.09 160.702 1021.17 167.562 1029.05 172.795ZM1029.84 113.176C1030.35 110.5 1031.05 108.025 1031.96 105.75C1034.03 100.517 1037.07 96.6271 1041.08 94.0811C1045.23 91.3936 1050.14 90.0499 1055.8 90.0499C1063.27 90.0499 1069.22 92.1715 1073.64 96.4149C1078.06 100.658 1080.48 106.245 1080.9 113.176H1029.84Z" fill="black"/>
<path d="M1152.36 72.0155H1126.85V178.948H1152.36V128.452C1152.36 117.702 1154.16 109.286 1157.75 103.204C1161.35 96.9806 1167.08 93.8688 1174.96 93.8688H1191.35V72.0155H1179.11C1172.34 72.0155 1166.81 73.5007 1162.52 76.471C1158.24 79.2999 1154.85 84.1091 1152.36 90.8984V72.0155Z" fill="black"/>
<path fill-rule="evenodd" clip-rule="evenodd" d="M1378.45 255.328H1357.29V306.46H1369.53V288.426H1376.79C1378.72 288.426 1380.11 288.921 1380.94 289.911C1381.9 290.901 1382.53 292.599 1382.8 295.003L1384.05 306.46H1396.08L1394.62 292.669C1394.35 290.123 1393.8 288.072 1392.97 286.517C1392.14 284.819 1390.82 283.405 1389.03 282.273C1391.1 281.425 1392.76 280.01 1394 278.03C1395.25 275.908 1395.87 273.433 1395.87 270.604C1395.87 265.936 1394.35 262.259 1391.31 259.571C1388.26 256.742 1383.98 255.328 1378.45 255.328ZM1382.18 276.12C1381.08 277.11 1379.49 277.606 1377.41 277.606H1369.53V266.361H1377.41C1379.49 266.361 1381.08 266.856 1382.18 267.846C1383.29 268.836 1383.84 270.18 1383.84 271.877C1383.84 273.716 1383.29 275.13 1382.18 276.12Z" fill="black"/>
<path fill-rule="evenodd" clip-rule="evenodd" d="M1375.75 328.95C1366.77 328.95 1358.75 326.97 1351.69 323.009C1344.78 318.907 1339.32 313.25 1335.31 306.036C1331.3 298.822 1329.3 290.618 1329.3 281.425C1329.3 272.372 1331.3 264.239 1335.31 257.025C1339.32 249.812 1344.78 244.225 1351.69 240.264C1358.75 236.162 1366.77 234.111 1375.75 234.111C1384.6 234.111 1392.55 236.162 1399.6 240.264C1406.65 244.225 1412.11 249.812 1415.99 257.025C1420 264.239 1422 272.372 1422 281.425C1422 290.618 1420 298.822 1415.99 306.036C1412.11 313.25 1406.65 318.907 1399.6 323.009C1392.55 326.97 1384.6 328.95 1375.75 328.95ZM1375.75 317.705C1382.53 317.705 1388.54 316.149 1393.8 313.037C1399.19 309.926 1403.33 305.612 1406.24 300.095C1409.14 294.579 1410.59 288.355 1410.59 281.425C1410.59 274.494 1409.07 268.341 1406.03 262.966C1403.13 257.45 1398.98 253.206 1393.59 250.236C1388.33 247.124 1382.39 245.568 1375.75 245.568C1368.98 245.568 1362.96 247.124 1357.71 250.236C1352.46 253.348 1348.31 257.662 1345.27 263.178C1342.36 268.553 1340.91 274.635 1340.91 281.425C1340.91 288.355 1342.36 294.579 1345.27 300.095C1348.31 305.612 1352.46 309.926 1357.71 313.037C1362.96 316.149 1368.98 317.705 1375.75 317.705Z" fill="black"/>
<path d="M1244.51 355.642V391.115H1219V238.355H1244.51V323.409L1284.54 284.183H1316.89L1274.33 326.196L1320.41 391.115H1289.72L1257.03 343.282L1244.51 355.642Z" fill="black"/>
<path d="M1164.71 284.183H1139.2V391.115H1164.71V340.619C1164.71 329.869 1166.51 321.453 1170.11 315.371C1173.7 309.148 1179.44 306.036 1187.32 306.036H1203.7V284.183H1191.47C1184.69 284.183 1179.16 285.668 1174.88 288.638C1170.59 291.467 1167.2 296.276 1164.71 303.066V284.183Z" fill="black"/>
<path fill-rule="evenodd" clip-rule="evenodd" d="M1036.8 385.599C1045.09 390.408 1054.49 392.813 1065 392.813C1075.37 392.813 1084.7 390.408 1093 385.599C1101.29 380.79 1107.79 374.213 1112.49 365.867C1117.19 357.522 1119.54 348.116 1119.54 337.649C1119.54 327.182 1117.19 317.776 1112.49 309.431C1107.79 301.086 1101.29 294.508 1093 289.699C1084.7 284.89 1075.37 282.486 1065 282.486C1054.49 282.486 1045.09 284.89 1036.8 289.699C1028.5 294.508 1022 301.086 1017.3 309.431C1012.6 317.776 1010.25 327.182 1010.25 337.649C1010.25 348.116 1012.6 357.522 1017.3 365.867C1022 374.213 1028.5 380.79 1036.8 385.599ZM1079.93 366.292C1075.65 368.979 1070.67 370.323 1065 370.323C1059.33 370.323 1054.29 368.979 1049.86 366.292C1045.44 363.463 1041.98 359.573 1039.49 354.622C1037.14 349.672 1035.97 344.014 1035.97 337.649C1035.97 331.284 1037.14 325.626 1039.49 320.676C1041.98 315.725 1045.44 311.906 1049.86 309.219C1054.29 306.39 1059.33 304.975 1065 304.975C1070.53 304.975 1075.51 306.39 1079.93 309.219C1084.36 311.906 1087.75 315.725 1090.1 320.676C1092.58 325.626 1093.83 331.284 1093.83 337.649C1093.83 344.014 1092.58 349.672 1090.1 354.622C1087.75 359.573 1084.36 363.463 1079.93 366.292Z" fill="black"/>
<path d="M875.053 284.183H849.544L882.934 391.115H905.332L926.486 319.19L947.432 391.115H970.037L1003.22 284.183H977.918L958.631 355.683L938.099 284.183H914.872L894.133 355.683L875.053 284.183Z" fill="black"/>
<path d="M805.273 386.659C810.941 389.63 817.578 391.115 825.182 391.115H841.981V369.262H828.086C823.247 369.262 819.514 367.847 816.887 365.018C814.26 362.189 812.946 358.088 812.946 352.713V306.036H841.981V284.183H812.946V251.933H787.437V284.183H766.906V306.036H787.437V353.774C787.437 361.553 788.958 368.272 792 373.929C795.18 379.446 799.604 383.689 805.273 386.659Z" fill="black"/>
<path fill-rule="evenodd" clip-rule="evenodd" d="M681.715 384.962C689.734 390.196 699.274 392.813 710.334 392.813C723.331 392.813 734.253 389.418 743.102 382.629C752.089 375.839 757.55 366.787 759.486 355.471H734.599C733.355 360.563 730.59 364.453 726.303 367.14C722.156 369.828 716.833 371.171 710.334 371.171C704.528 371.171 699.412 369.757 694.988 366.928C690.702 364.099 687.383 360.139 685.033 355.047C683.431 351.48 682.375 347.52 681.865 343.165H758.656C758.933 340.336 759.071 337.295 759.071 334.042C759.071 325.131 757.204 316.786 753.471 309.006C749.738 301.227 744.07 294.862 736.466 289.911C728.861 284.961 719.529 282.486 708.468 282.486C697.545 282.486 688.213 285.032 680.47 290.124C672.866 295.216 667.059 301.934 663.05 310.279C659.178 318.625 657.243 327.606 657.243 337.225C657.243 346.843 659.317 355.895 663.464 364.382C667.75 372.869 673.834 379.729 681.715 384.962ZM682.501 325.343H733.562C733.147 318.413 730.728 312.825 726.303 308.582C721.879 304.339 715.934 302.217 708.468 302.217C702.799 302.217 697.891 303.561 693.743 306.248C689.734 308.794 686.692 312.684 684.618 317.917C683.717 320.192 683.011 322.668 682.501 325.343Z" fill="black"/>
<path d="M547.346 242.598H517.896V391.115H545.064V286.517L608.111 391.115H637.56V242.598H610.392V347.409L547.346 242.598Z" fill="black"/>
<path d="M763.918 72.0157H789.427V88.5647C792.193 82.7655 796.409 78.31 802.078 75.1982C807.885 71.9449 814.522 70.3183 821.988 70.3183C829.592 70.3183 836.367 72.0864 842.312 75.6225C848.257 79.1586 852.819 84.1799 855.999 90.6864C859.179 97.0514 860.769 104.407 860.769 112.752V178.948H835.468V118.268C835.468 110.913 833.394 104.972 829.246 100.446C825.237 95.7784 819.983 93.4445 813.485 93.4445C808.922 93.4445 804.774 94.6468 801.041 97.0514C797.446 99.3145 794.612 102.497 792.538 106.599C790.464 110.701 789.427 115.369 789.427 120.602V178.948H763.918V72.0157Z" fill="black"/>
<path fill-rule="evenodd" clip-rule="evenodd" d="M694.74 180.645C683.679 180.645 674.139 178.029 666.12 172.795C658.239 167.562 652.156 160.702 647.87 152.215C643.722 143.728 641.648 134.676 641.648 125.057C641.648 115.439 643.584 106.457 647.455 98.1122C651.464 89.767 657.271 83.0484 664.876 77.9563C672.618 72.8643 681.951 70.3183 692.873 70.3183C703.934 70.3183 713.267 72.7936 720.871 77.7442C728.475 82.6947 734.144 89.0598 737.877 96.8392C741.61 104.619 743.476 112.964 743.476 121.875C743.476 125.128 743.338 128.169 743.061 130.998H666.27C666.781 135.353 667.836 139.313 669.438 142.88C671.789 147.972 675.107 151.932 679.393 154.761C683.817 157.59 688.933 159.004 694.74 159.004C701.238 159.004 706.561 157.66 710.709 154.973C714.995 152.286 717.76 148.396 719.004 143.304H743.891C741.955 154.619 736.494 163.672 727.507 170.461C718.659 177.251 707.736 180.645 694.74 180.645ZM669.023 105.75C668.122 108.025 667.416 110.5 666.907 113.176H717.967C717.553 106.245 715.133 100.658 710.709 96.4149C706.284 92.1715 700.339 90.0499 692.873 90.0499C687.205 90.0499 682.296 91.3936 678.149 94.0811C674.139 96.6271 671.097 100.517 669.023 105.75Z" fill="black"/>
<path fill-rule="evenodd" clip-rule="evenodd" d="M517.896 30.4309H577.21C587.165 30.4309 595.737 32.1283 602.926 35.523C610.254 38.9176 615.853 43.7975 619.725 50.1625C623.596 56.5275 625.532 64.0948 625.532 72.8644C625.532 82.1998 623.112 90.1207 618.273 96.6271C614.892 101.205 610.581 104.942 605.339 107.837C607.278 109.075 609.101 110.501 610.807 112.115C618.135 119.046 622.283 128.099 623.25 139.273L626.776 178.948H599.401L595.875 142.455C595.46 136.797 593.455 132.2 589.861 128.664C586.404 124.987 581.98 123.148 576.588 123.148H545.272V178.948H517.896V30.4309ZM575.966 98.961C581.081 98.961 585.298 97.9708 588.616 95.9906C592.073 93.8689 594.631 91.1108 596.29 87.7161C597.949 84.18 598.778 80.361 598.778 76.2591C598.778 69.7526 596.843 64.4484 592.972 60.3465C589.238 56.1032 583.57 53.9815 575.966 53.9815H545.272V98.961H575.966Z" fill="black"/>
</svg>
