<svg width="1690" height="142" viewBox="0 0 1690 142" fill="none" xmlns="http://www.w3.org/2000/svg">
	<g clip-path="url(#clip0_21_100)">
		<path
			d="M780.01 141.88C777.6 141.88 776.36 138.66 778.03 136.75L804.5 108.11C805.57 106.98 806.95 106.42 808.41 106.42H942.65C945.07 106.42 946.31 109.64 944.63 111.55L918.15 140.19C917.08 141.32 915.71 141.88 914.24 141.88H780.01Z"
			fill="black" />
		<path
			d="M780.01 35.5801C777.6 35.5801 776.36 32.3601 778.03 30.4501L804.5 1.81011C805.57 0.680112 806.95 0.120117 808.41 0.120117H942.65C945.07 0.120117 946.31 3.34011 944.63 5.25011L918.15 33.8901C917.08 35.0201 915.71 35.5801 914.24 35.5801H780.01Z"
			fill="black" />
		<path
			d="M914.13 52.96C915.64 52.96 916.97 53.5199 918.04 54.6499L944.64 83.2899C946.32 85.2499 945.03 88.42 942.62 88.42H807.9C806.4 88.42 805.06 87.8599 803.99 86.7299L777.39 58.09C775.71 56.13 777 52.96 779.41 52.96H914.13Z"
			fill="black" />
		<path d="M220.26 29.3604H239.27V108.12H287.49V125.19H220.26V29.3604Z" fill="black" />
		<path
			d="M338.68 29.3604H372.81L404.7 125.19H385.08L377.15 101.38H333.88L325.95 125.19H306.79L338.68 29.3604ZM371.62 84.9203L359.34 48.0804H351.55L339.27 84.9203H371.62Z"
			fill="black" />
		<path
			d="M427.88 29.3604H460.52L494.96 104.07H497.36V29.3604H516.08V125.19H483.44L448.85 50.4803H446.6V125.19H427.88V29.3604Z"
			fill="black" />
		<path
			d="M571 29.3604H605.13L637.02 125.19H617.4L609.47 101.38H566.2L558.27 125.19H539.1L571 29.3604ZM603.94 84.9203L591.66 48.0804H583.87L571.59 84.9203H603.94Z"
			fill="black" />
		<path
			d="M0.280029 95.6904H19.74C20.79 104.08 25.15 110.36 40.33 110.36H42.8C57.27 110.36 61.29 105.27 61.29 98.3804C61.29 92.0904 56.27 87.6004 49.24 86.8504L28.87 83.7803C8.53003 81.0003 2.82003 67.8504 2.82003 56.0804C2.82003 37.3604 14.83 27.1104 39.66 27.1104C64.48 27.1104 76.34 37.7403 77.24 58.7003H57.93C56.6 49.8803 53.14 44.1703 39.74 44.1703H38.09C26.19 44.1703 20.72 48.5104 20.72 55.5504C20.72 62.5904 25.96 66.7803 32.55 67.5303L53.73 70.6004C72.91 72.9804 79.34 84.5403 79.34 98.1503C79.34 117.02 68.86 127.42 39.96 127.42C13.6 127.44 0.730029 116.66 0.280029 95.6904Z"
			fill="black" />
		<path
			d="M111.32 40.5301C120.12 31.5401 132 27.1201 147.09 27.1201C162.18 27.1201 174.06 31.6801 182.72 40.6601C191.52 49.6501 195.85 61.8501 195.85 77.4101C195.85 92.9701 191.52 105.17 182.86 114.16C174.2 123.01 162.32 127.44 147.09 127.44C131.86 127.44 119.98 123.02 111.32 114.16C102.66 105.17 98.3301 92.9701 98.3301 77.4101C98.3201 61.8601 102.66 49.5101 111.32 40.5301ZM118.85 83.8301C118.85 100.65 129.96 110.42 147.08 110.42C164.2 110.42 175.18 100.15 175.18 83.8301V70.6001C175.18 53.7801 164.21 44.1401 147.08 44.1401C129.96 44.1401 118.85 54.5501 118.85 70.6001V83.8301Z"
			fill="black" />
		<path
			d="M1443.29 108.42H1462.15V46.1303H1443.29V29.3604H1500.04V46.1303H1481.03V108.42H1500.04V125.19H1443.29V108.42Z"
			fill="black" />
		<path d="M1527.3 29.3604H1546.31V108.12H1594.52V125.19H1527.29V29.3604H1527.3Z" fill="black" />
		<path
			d="M1618.77 29.3604H1688.98V45.5303H1637.63V68.1404H1685.25V84.0103H1637.63V109.02H1689.73V125.19H1618.77V29.3604Z"
			fill="black" />
		<path
			d="M1165.43 29.3604L1148.51 102.88H1147.28H1146.05L1129.13 29.3604H1093.94V125.19H1112.65L1111.74 50.3304H1116.11L1133.33 125.19H1147.28H1161.23L1178.45 50.3304H1182.82L1181.91 125.19H1200.62V29.3604H1165.43Z"
			fill="black" />
		<path
			d="M1404.14 73.6803V73.0903C1413.12 69.1903 1417.62 61.7003 1417.62 52.8703C1417.62 39.0903 1407.44 29.3604 1388.57 29.3604H1344.41V125.19H1390.82C1411.32 125.19 1421.81 112.76 1421.81 97.6404C1421.81 86.1104 1415.36 77.7203 1404.14 73.6803ZM1363.27 44.3304H1389.37C1394.64 44.3304 1398.91 48.6004 1398.91 53.8604V58.3103C1398.91 63.5803 1394.64 67.8304 1389.37 67.8304H1363.27V44.3304ZM1402.93 99.7803C1402.93 105.64 1398.19 110.39 1392.33 110.39H1363.26V82.3604H1392.33C1398.19 82.3604 1402.93 87.1104 1402.93 92.9704V99.7803Z"
			fill="black" />
		<path
			d="M1235.45 40.5301C1244.26 31.5401 1256.13 27.1201 1271.22 27.1201C1286.31 27.1201 1298.18 31.6801 1306.84 40.6601C1315.65 49.6501 1319.98 61.8501 1319.98 77.4101C1319.98 92.9701 1315.65 105.17 1306.99 114.16C1298.32 123.01 1286.44 127.44 1271.22 127.44C1255.99 127.44 1244.11 123.02 1235.45 114.16C1226.79 105.17 1222.46 92.9701 1222.46 77.4101C1222.46 61.8601 1226.79 49.5101 1235.45 40.5301ZM1242.99 83.8301C1242.99 100.65 1254.09 110.42 1271.22 110.42C1288.35 110.42 1299.31 100.15 1299.31 83.8301V70.6001C1299.31 53.7801 1288.35 44.1401 1271.22 44.1401C1254.09 44.1401 1242.99 54.5501 1242.99 70.6001V83.8301Z"
			fill="black" />
	</g>
	<defs>
		<clipPath id="clip0_21_100">
			<rect width="1690" height="142" fill="white" />
		</clipPath>
	</defs>
</svg>