<svg xmlns="http://www.w3.org/2000/svg" width="1412" height="350" viewBox="0 0 1412 350" fill="none">
<path d="M182.76 32.8201C109.06 32.8201 49.0901 92.7801 49.0901 166.49C49.0901 240.2 109.05 300.16 182.76 300.16C256.47 300.16 316.43 240.2 316.43 166.49C316.43 92.7801 256.47 32.8201 182.76 32.8201ZM131.84 166.49C131.84 136.76 156.03 112.58 185.75 112.58C215.47 112.58 239.66 136.77 239.66 166.49H131.84ZM242.01 166.49C242.01 135.47 216.77 110.23 185.75 110.23C154.73 110.23 129.49 135.47 129.49 166.49H118.44C118.44 129.65 148.41 99.6701 185.26 99.6701C222.1 99.6701 252.07 129.64 252.07 166.49H242.01ZM254.42 166.49C254.42 128.35 223.39 97.3301 185.26 97.3301C147.12 97.3301 116.1 128.36 116.1 166.49H105.05C105.05 122.53 140.81 86.7701 184.77 86.7701C228.73 86.7701 264.49 122.53 264.49 166.49H254.42ZM266.82 166.49C266.82 121.24 230.01 84.4301 184.76 84.4301C139.51 84.4301 102.7 121.24 102.7 166.49H91.6401C91.6401 115.42 133.19 73.8701 184.26 73.8701C235.33 73.8701 276.88 115.42 276.88 166.49H266.82ZM279.22 166.49C279.22 114.13 236.62 71.5301 184.26 71.5301C131.9 71.5301 89.3001 114.13 89.3001 166.49H78.2401C78.2401 108.31 125.58 60.9701 183.76 60.9701C241.94 60.9701 289.28 108.31 289.28 166.49H279.22ZM291.63 166.49C291.63 107.01 243.24 58.6201 183.76 58.6201C124.28 58.6201 75.8901 107.01 75.8901 166.49H64.8401C64.8401 101.19 117.96 48.0701 183.26 48.0701C248.56 48.0701 301.68 101.19 301.68 166.49H291.63ZM183.26 45.7201C116.67 45.7201 62.5001 99.9001 62.5001 166.49H51.4401C51.4401 94.0801 110.35 35.1701 182.76 35.1701C255.17 35.1701 314.08 94.0801 314.08 166.49H304.02C304.03 99.9001 249.85 45.7201 183.26 45.7201Z" fill="black"/>
<path d="M434.42 267.1C385.22 267.1 359.12 242.2 359.12 196V55H395.12V115H429.32V148H395.12V195.7C395.12 223 406.22 234.1 434.42 234.1V267.1Z" fill="black"/>
<path d="M513.01 112.9C559.51 112.9 590.41 143.8 590.41 190C590.41 236.5 559.51 267.7 513.01 267.7C466.51 267.7 435.31 236.5 435.31 190C435.31 143.8 466.51 112.9 513.01 112.9ZM512.71 234.7C537.91 234.7 554.41 218.2 554.41 190.3C554.41 162.4 537.91 145.9 512.71 145.9C487.81 145.9 471.31 162.4 471.31 190.3C471.31 218.2 487.81 234.7 512.71 234.7Z" fill="black"/>
<path d="M600.01 55H636.01V207.1L703.81 115H746.71L691.21 190L745.51 265H702.91L669.91 219.1L636.01 265H600.01V55Z" fill="black"/>
<path d="M890.11 190.6V265H854.11V250.6C846.91 259.9 831.61 267.7 809.71 267.7C766.21 267.7 735.01 236.5 735.01 190C735.01 143.8 766.21 112.9 812.41 112.9C858.91 112.9 890.11 144.1 890.11 190.6ZM812.71 145.9C787.51 145.9 771.01 162.4 771.01 190.3C771.01 218.2 787.51 234.7 812.71 234.7C837.61 234.7 854.11 218.2 854.11 190.3C854.11 162.4 837.61 145.9 812.71 145.9Z" fill="black"/>
<path d="M1023.91 136.3C1033.21 122.8 1048.81 112.3 1074.91 112.3C1124.41 112.3 1143.91 149.5 1143.91 175.6V265H1107.91V176.5C1107.91 155.2 1092.31 145.6 1074.91 145.6C1057.51 145.6 1041.91 155.2 1041.91 176.5V265H1005.91V176.5C1005.91 155.2 990.31 145.6 972.91 145.6C955.51 145.6 939.91 155.2 939.91 176.5V265H903.91V175.6C903.91 149.5 923.41 112.3 972.91 112.3C999.01 112.3 1014.61 122.8 1023.91 136.3Z" fill="black"/>
<path d="M1308.31 190.6V265H1272.31V250.6C1265.11 259.9 1249.81 267.7 1227.91 267.7C1184.41 267.7 1153.21 236.5 1153.21 190C1153.21 143.8 1184.41 112.9 1230.61 112.9C1277.11 112.9 1308.31 144.1 1308.31 190.6ZM1230.91 145.9C1205.71 145.9 1189.21 162.4 1189.21 190.3C1189.21 218.2 1205.71 234.7 1230.91 234.7C1255.81 234.7 1272.31 218.2 1272.31 190.3C1272.31 162.4 1255.81 145.9 1230.91 145.9Z" fill="black"/>
<path d="M1340.1 51.7C1351.2 51.7 1359.9 60.7 1359.9 71.5C1359.9 82.9 1351.2 91.5999 1340.1 91.5999C1329 91.5999 1320.3 82.9 1320.3 71.5C1320.31 60.7 1329.01 51.7 1340.1 51.7ZM1322.1 115H1358.1V265H1322.1V115Z" fill="black"/>
</svg>