<svg xmlns="http://www.w3.org/2000/svg" width="100%" viewBox="0 0 154 28" fill="none">
    <path d="M137.469 28H129.863L134.344 6.92H124.57L126.041 0H153.153L151.683 6.92H141.95L137.469 28Z" fill="black">
    </path>
    <path
        d="M111.633 28H92.8219L94.2332 21.36H104.579C106.992 21.36 109.763 21.3598 110.54 21.3598C111.235 21.3598 111.828 21.12 111.972 20.44L112.253 19.12C112.363 18.6 112.244 18.2 111.729 18.12L101.186 16.16C96.3264 15.36 96.2641 12.96 97.0463 9.28L97.7605 5.92C98.4576 2.64 101.8 0 105.153 0H122.165L120.753 6.64H113.106C110.366 6.64 107.236 6.6402 106.173 6.6402C105.478 6.6402 104.876 6.88 104.74 7.52L104.485 8.72C104.375 9.24 104.494 9.64 105.009 9.72L116.376 11.84C120.011 12.44 120.573 14.8 119.859 18.16L119.025 22.08C118.328 25.36 114.986 28 111.633 28Z"
        fill="black"></path>
    <path
        d="M83.5981 28H67.7723C64.419 28 62.1994 25.36 62.8966 22.08L66.34 5.88C67.0287 2.64 70.3706 0 73.7239 0H89.5497C92.903 0 95.1226 2.64 94.4339 5.88L90.9905 22.08C90.2933 25.36 86.9514 28 83.5981 28ZM71.9422 21.08H82.3701C83.0652 21.08 83.6665 20.56 83.811 19.88L86.3107 8.12C86.4637 7.4 86.075 6.92 85.3799 6.92H74.952C74.2568 6.92 73.6231 7.4 73.4701 8.12L70.9704 19.88C70.8259 20.56 71.247 21.08 71.9422 21.08Z"
        fill="black"></path>
    <path
        d="M52.1684 28H36.3426C32.9893 28 30.7697 25.36 31.4669 22.08L34.9103 5.88C35.599 2.64 38.9409 0 42.2942 0H58.12C61.4733 0 63.6929 2.64 63.0042 5.88L59.5608 22.08C58.8636 25.36 55.5217 28 52.1684 28ZM40.5125 21.08H50.9404C51.6356 21.08 52.2368 20.56 52.3813 19.88L54.881 8.12C55.034 7.4 54.6454 6.92 53.9502 6.92H43.5223C42.8271 6.92 42.1935 7.4 42.0404 8.12L39.5408 19.88C39.3962 20.56 39.8173 21.08 40.5125 21.08Z"
        fill="black"></path>
    <path fill-rule="evenodd" clip-rule="evenodd"
        d="M0 28H21.0241C24.3365 28 27.5725 25.9518 28.2697 22.6718L29.0309 19.0987C29.6872 16.0111 27.1708 14.2928 24.6378 14.0188L24.6022 13.9158C26.1557 13.1019 28.4337 11.1921 28.9014 8.99184L29.437 6.47184C30.1257 3.23184 28.012 0 24.6996 0H5.95158L0 28ZM18.2942 1.40656L5.3537 13.9652H13.5223L10.5454 26.6003L23.5794 13.9652H15.3089L18.2942 1.40656Z"
        fill="black"></path>
</svg>