<?xml version="1.0" encoding="UTF-8" standalone="no"?>
<svg width="463" height="224" viewBox="0 0 463 224" fill="none" xmlns="http://www.w3.org/2000/svg">
    <g clip-path="url(#clip0_335_1418)">
        <path fill-rule="evenodd" clip-rule="evenodd"
            d="M31.0535 46.2148H5.86897C4.34298 46.4315 2.99351 47.1956 2.02553 48.3047C1.05755 49.4138 0.471069 50.8622 0.471069 52.4503V77.475C0.471069 79.1829 1.14865 80.7311 2.25044 81.8658C3.35223 83.0006 4.87537 83.7219 6.56934 83.7733H18.8114L31.0535 83.7761C31.7197 83.7761 32.3233 84.0498 32.7646 84.4889C33.2058 84.928 33.4763 85.5353 33.4763 86.2025C33.4763 121.691 32.44 144.66 34.487 161.85C36.534 179.039 41.67 190.444 54.0088 202.804C66.1911 215.004 82.8375 222.768 100.526 223.387C118.214 224.005 136.945 217.479 153.301 201.099C155.647 198.75 157.987 196.295 160.393 193.771C162.801 191.248 165.275 188.659 167.889 186.042C168.358 185.571 168.979 185.335 169.6 185.335C170.22 185.335 170.841 185.571 171.311 186.042C189.347 204.104 198.178 212.974 202.608 217.399C207.041 221.824 207.072 221.804 207.508 222.089C209.925 223.64 212.06 223.244 213.637 222.417C215.214 221.587 216.234 220.322 216.424 220.133L225.264 211.28L234.104 202.428C234.958 201.572 236.584 200.255 237.592 198.524C238.6 196.794 238.995 194.658 237.387 192.166C237.102 191.713 237.122 191.681 232.703 187.248C228.285 182.814 219.431 173.976 201.392 155.914C200.922 155.443 200.686 154.822 200.686 154.197C200.686 153.573 200.922 152.954 201.392 152.481C210.261 143.599 216.797 137.053 221.657 132.183C226.517 127.313 229.7 124.126 231.864 121.959C234.474 119.344 236.117 117.836 237.128 116.604C238.138 115.373 238.52 114.418 238.605 112.907C238.694 111.313 238.232 110.121 237.523 109.103C236.815 108.085 235.852 107.233 234.944 106.32L225.657 97.0084L216.37 87.6965C215.713 87.0378 214.981 86.365 214.13 85.8575C213.278 85.3499 212.31 85.005 211.177 85.005C210.246 85.005 209.378 85.2673 208.555 85.6978C207.732 86.1283 206.952 86.7271 206.204 87.3971C206.006 87.5758 204.473 89.0945 201.603 91.9533C197.31 96.25 188.734 104.855 171.308 122.347C170.835 122.82 170.215 123.06 169.594 123.06C168.973 123.06 168.353 122.823 167.88 122.35L150.206 104.652L132.532 86.9552C131.47 85.8917 130.001 85.0848 128.401 84.9394C126.801 84.794 125.067 85.31 123.481 86.901C122.792 87.591 121.374 89.0109 118.322 92.0673C115.271 95.1238 110.59 99.8111 103.373 107.039C100.25 110.167 100.042 112.701 100.771 114.612C101.5 116.522 103.168 117.808 103.791 118.432L120.794 135.459L137.796 152.486C138.266 152.957 138.499 153.576 138.499 154.197C138.499 154.819 138.266 155.437 137.799 155.911C128.782 165.009 123.248 171.082 118.377 174.88C113.505 178.677 109.298 180.203 102.932 180.203C88.5571 180.203 81.7642 172.616 78.5642 164.111C75.3642 155.606 75.7571 146.185 75.7571 142.513C75.7571 138.196 75.8197 133.124 75.8852 127.091C75.9478 121.058 76.0133 114.061 76.0133 105.895V86.1426C76.0133 84.62 76.8104 84.0128 78.2709 83.7847C79.7315 83.5594 81.8553 83.7134 84.5116 83.7134C94.5017 83.7134 100.278 83.7504 103.606 83.7847C107.979 83.8303 110.325 84.0926 112.532 81.9029C113.554 80.7425 114.075 79.2199 114.075 77.7601C114.075 64.6961 114.083 58.3237 114.08 55.1332C114.078 51.9456 114.063 51.9428 114.024 51.6234C113.841 50.2264 113.201 48.9719 112.256 48.0196C111.31 47.0673 110.066 46.4115 108.677 46.2148H78.4389C77.7727 46.2148 77.1692 45.9411 76.7279 45.502C76.2866 45.0629 76.0161 44.4556 76.0161 43.7884V25.33V6.87148C76.0161 5.13226 75.3129 3.55842 74.1741 2.41795C73.0353 1.27748 71.4638 0.573242 69.7243 0.573242H39.7596C38.023 0.573242 36.4486 1.27748 35.3098 2.41795C34.171 3.55842 33.4678 5.13226 33.4678 6.87433V43.7884C33.4678 44.4556 33.1945 45.0601 32.756 45.502C32.3176 45.9439 31.7112 46.2148 31.045 46.2148H31.0535Z"
            fill="black"></path>
        <path fill-rule="evenodd" clip-rule="evenodd"
            d="M255.431 46.2148H230.247C228.721 46.4315 227.371 47.1956 226.403 48.3047C225.435 49.4138 224.849 50.8622 224.849 52.4503V77.475C224.849 79.1829 225.526 80.7311 226.628 81.8658C227.73 83.0006 229.253 83.7219 230.947 83.7733H243.189L255.431 83.7761C256.097 83.7761 256.701 84.0498 257.142 84.4889C257.583 84.928 257.854 85.5353 257.854 86.2025C257.854 121.691 256.818 144.66 258.865 161.85C260.912 179.039 266.048 190.444 278.386 202.804C290.569 215.004 307.215 222.768 324.903 223.387C342.592 224.005 361.322 217.479 377.678 201.099C380.024 198.75 382.364 196.295 384.77 193.771C387.179 191.248 389.653 188.659 392.266 186.042C392.736 185.571 393.357 185.335 393.977 185.335C394.598 185.335 395.219 185.571 395.688 186.042C413.724 204.104 422.555 212.974 426.985 217.399C431.418 221.824 431.449 221.804 431.885 222.089C434.302 223.64 436.437 223.244 438.015 222.417C439.592 221.587 440.611 220.322 440.802 220.133L449.642 211.28L458.482 202.428C459.336 201.572 460.961 200.255 461.969 198.524C462.977 196.794 463.373 194.658 461.764 192.166C461.48 191.713 461.5 191.681 457.081 187.248C452.662 182.814 443.808 173.976 425.77 155.914C425.3 155.443 425.064 154.822 425.064 154.197C425.064 153.573 425.3 152.954 425.77 152.481C434.638 143.599 441.175 137.053 446.035 132.183C450.894 127.313 454.077 124.126 456.241 121.959C458.852 119.344 460.495 117.836 461.505 116.604C462.516 115.373 462.897 114.418 462.983 112.907C463.071 111.313 462.61 110.121 461.901 109.103C461.192 108.085 460.23 107.233 459.322 106.32L450.035 97.0084L440.748 87.6965C440.09 87.0378 439.358 86.365 438.507 85.8575C437.656 85.3499 436.688 85.005 435.555 85.005C434.624 85.005 433.756 85.2673 432.933 85.6978C432.11 86.1283 431.33 86.7271 430.581 87.3971C430.384 87.5758 428.85 89.0945 425.98 91.9533C421.687 96.25 413.112 104.855 395.686 122.347C395.213 122.82 394.592 123.06 393.972 123.06C393.351 123.06 392.73 122.823 392.258 122.35L374.584 104.652L356.909 86.9552C355.847 85.8917 354.378 85.0848 352.778 84.9394C351.178 84.794 349.445 85.31 347.859 86.901C347.17 87.591 345.752 89.0109 342.7 92.0673C339.648 95.1238 334.968 99.8111 327.75 107.039C324.627 110.167 324.42 112.701 325.148 114.612C325.877 116.522 327.546 117.808 328.169 118.432L345.171 135.459L362.174 152.486C362.643 152.957 362.877 153.576 362.877 154.197C362.877 154.819 362.643 155.437 362.176 155.911C353.16 165.009 347.625 171.082 342.754 174.88C337.883 178.677 333.675 180.203 327.309 180.203C312.935 180.203 306.142 172.616 302.942 164.111C299.742 155.606 300.135 146.185 300.135 142.513C300.135 138.196 300.197 133.124 300.263 127.091C300.325 121.058 300.391 114.061 300.391 105.895V86.1426C300.391 84.62 301.188 84.0128 302.649 83.7847C304.109 83.5594 306.233 83.7134 308.889 83.7134C318.879 83.7134 324.656 83.7504 327.984 83.7847C332.357 83.8303 334.703 84.0926 336.909 81.9029C337.931 80.7425 338.452 79.2199 338.452 77.7601C338.452 64.6961 338.461 58.3237 338.458 55.1332C338.455 51.9456 338.441 51.9428 338.401 51.6234C338.219 50.2264 337.578 48.9719 336.633 48.0196C335.688 47.0673 334.444 46.4115 333.054 46.2148H302.816C302.15 46.2148 301.547 45.9411 301.105 45.502C300.664 45.0629 300.394 44.4556 300.394 43.7884V25.33V6.87148C300.394 5.13226 299.69 3.55842 298.552 2.41795C297.413 1.27748 295.841 0.573242 294.102 0.573242H264.137C262.401 0.573242 260.826 1.27748 259.687 2.41795C258.549 3.55842 257.845 5.13226 257.845 6.87433V43.7884C257.845 44.4556 257.572 45.0601 257.134 45.502C256.695 45.9439 256.089 46.2148 255.423 46.2148H255.431Z"
            fill="#00D992"></path>
    </g>
    <defs>
        <clipPath id="clip0_335_1418">
            <rect width="462.532" height="222.847" fill="black" transform="translate(0.468384 0.576172)"></rect>
        </clipPath>
    </defs>
</svg>